<svg width="20" height="20" viewBox="0 0 20 20" fill="none" xmlns="http://www.w3.org/2000/svg">
<path d="M15.5881 20C14.6403 20 13.6421 19.774 12.6104 19.3386C11.6039 18.9116 10.589 18.3256 9.59926 17.614C8.61789 16.894 7.67008 16.0902 6.7726 15.2112C5.8835 14.3153 5.07829 13.3693 4.36533 12.3981C3.64399 11.3935 3.06524 10.3888 2.65424 9.41767C2.21808 8.37953 2 7.37488 2 6.42884C2 5.77581 2.11743 5.15628 2.3439 4.5786C2.57875 3.98419 2.9562 3.43163 3.46785 2.95442C4.1137 2.31814 4.85182 2 5.64026 2C5.96738 2 6.30289 2.07535 6.58807 2.2093C6.91519 2.36 7.19199 2.58605 7.39329 2.88744L9.33924 5.62512C9.51538 5.86791 9.64958 6.10233 9.74185 6.33674C9.85089 6.58791 9.9096 6.83907 9.9096 7.08186C9.9096 7.4 9.81733 7.70977 9.64119 8.00279C9.51538 8.22884 9.32246 8.47163 9.07922 8.71442L8.50885 9.30884C8.51724 9.33395 8.52563 9.3507 8.53402 9.36744C8.63467 9.54326 8.83597 9.84465 9.22181 10.2967C9.63281 10.7656 10.0186 11.1926 10.4045 11.586C10.8993 12.0716 11.3103 12.4567 11.6962 12.7749C12.1743 13.1767 12.4846 13.3777 12.6692 13.4698L12.6524 13.5116L13.2647 12.9088C13.5247 12.6493 13.7763 12.4567 14.0196 12.3312C14.4809 12.0465 15.068 11.9963 15.6552 12.2391C15.8733 12.3312 16.1081 12.4567 16.3597 12.6326L19.1445 14.6084C19.4548 14.8177 19.6813 15.0856 19.8155 15.4037C19.9413 15.7219 20 16.0149 20 16.3079C20 16.7098 19.9077 17.1116 19.7316 17.4884C19.5555 17.8651 19.3374 18.1916 19.0606 18.493C18.5825 19.0205 18.0624 19.3972 17.4585 19.64C16.8798 19.8744 16.2507 20 15.5881 20ZM5.64026 3.25581C5.17894 3.25581 4.75117 3.45674 4.34017 3.8586C3.95433 4.2186 3.68593 4.61209 3.51817 5.03907C3.34203 5.47442 3.25815 5.93488 3.25815 6.42884C3.25815 7.20744 3.44268 8.05302 3.81174 8.92372C4.18919 9.81116 4.71761 10.7321 5.38863 11.653C6.05965 12.574 6.82293 13.4698 7.6617 14.3153C8.50047 15.1442 9.40634 15.9144 10.3374 16.5926C11.2432 17.254 12.1743 17.7898 13.0969 18.1749C14.5312 18.786 15.8733 18.9284 16.9804 18.4679C17.4082 18.2921 17.7856 18.0242 18.1295 17.6391C18.3225 17.4298 18.4734 17.2037 18.5993 16.9358C18.6999 16.7265 18.7502 16.5088 18.7502 16.2912C18.7502 16.1572 18.7251 16.0233 18.658 15.8726C18.6328 15.8223 18.5825 15.7302 18.4231 15.6214L15.6384 13.6456C15.4706 13.5284 15.3197 13.4447 15.1771 13.386C14.9925 13.3107 14.9171 13.2353 14.6319 13.4112C14.4641 13.4949 14.3131 13.6205 14.1454 13.7879L13.5079 14.4158C13.1808 14.734 12.6775 14.8093 12.2917 14.667L12.0652 14.5665C11.7213 14.3823 11.3187 14.0977 10.8742 13.7209C10.4716 13.3777 10.0354 12.9758 9.50699 12.4567C9.09599 12.0381 8.685 11.5944 8.25722 11.1005C7.863 10.64 7.57782 10.2465 7.40168 9.92L7.30103 9.66884C7.2507 9.47628 7.23392 9.36744 7.23392 9.25023C7.23392 8.94884 7.34296 8.68093 7.55266 8.47163L8.18173 7.8186C8.34949 7.65116 8.4753 7.49209 8.55918 7.34977C8.62628 7.24093 8.65145 7.14884 8.65145 7.06512C8.65145 6.99814 8.62628 6.89767 8.58434 6.79721C8.52563 6.66326 8.43336 6.51256 8.31594 6.35349L6.36999 3.60744C6.28611 3.49023 6.18546 3.40651 6.05965 3.34791C5.92544 3.2893 5.78285 3.25581 5.64026 3.25581ZM12.6524 13.52L12.5182 14.0893L12.7446 13.5033C12.7027 13.4949 12.6692 13.5033 12.6524 13.52Z" fill="#7D7C86"/>
</svg>
