<svg width="16" height="18" viewBox="0 0 16 18" fill="none" xmlns="http://www.w3.org/2000/svg">
<path d="M3.81546 10.6996C3.62026 10.6996 3.45024 10.6272 3.30542 10.4823C3.16059 10.3375 3.08818 10.1675 3.08818 9.9723C3.08818 9.7771 3.16059 9.6074 3.30542 9.4632C3.45024 9.31901 3.62026 9.24659 3.81546 9.24596C4.01066 9.24533 4.18068 9.31775 4.32551 9.4632C4.47033 9.60866 4.54275 9.77868 4.54275 9.97325C4.54275 10.1678 4.47033 10.3375 4.32551 10.4823C4.18068 10.6272 4.01066 10.6996 3.81546 10.6996ZM7.59357 10.6996C7.39837 10.6996 7.22835 10.6272 7.08352 10.4823C6.9387 10.3375 6.86628 10.1675 6.86628 9.9723C6.86628 9.7771 6.9387 9.6074 7.08352 9.4632C7.22835 9.31901 7.39837 9.24659 7.59357 9.24596C7.78877 9.24533 7.95879 9.31775 8.10361 9.4632C8.24844 9.60866 8.32086 9.77868 8.32086 9.97325C8.32086 10.1678 8.24844 10.3375 8.10361 10.4823C7.95879 10.6272 7.78877 10.6996 7.59357 10.6996ZM11.3717 10.6996C11.1765 10.6996 11.0065 10.6272 10.8616 10.4823C10.7168 10.3375 10.6444 10.1675 10.6444 9.9723C10.6444 9.7771 10.7168 9.6074 10.8616 9.4632C11.0065 9.31901 11.1765 9.24659 11.3717 9.24596C11.5669 9.24533 11.7369 9.31775 11.8817 9.4632C12.0265 9.60866 12.099 9.77868 12.099 9.97325C12.099 10.1678 12.0265 10.3375 11.8817 10.4823C11.7369 10.6272 11.5669 10.6996 11.3717 10.6996ZM1.56371 17.4199C1.1286 17.4199 0.765584 17.2744 0.474669 16.9835C0.183755 16.6926 0.0379832 16.3296 0.0373535 15.8945V3.83288C0.0373535 3.3984 0.183125 3.0357 0.474669 2.74478C0.766213 2.45387 1.12923 2.3081 1.56371 2.30747H3.23458V0.201172H4.25183V2.30747H11.009V0.201172H11.9535V2.30747H13.6244C14.0589 2.30747 14.4219 2.45324 14.7134 2.74478C15.005 3.03633 15.1504 3.39934 15.1498 3.83382V15.8945C15.1498 16.329 15.0043 16.692 14.7134 16.9835C14.4225 17.2751 14.0592 17.4205 13.6234 17.4199H1.56371ZM1.56371 16.4754H13.6244C13.7692 16.4754 13.9024 16.4149 14.0239 16.294C14.1454 16.1731 14.2059 16.0396 14.2053 15.8935V7.61193H0.98188V15.8945C0.98188 16.0393 1.04233 16.1725 1.16323 16.294C1.28413 16.4156 1.41731 16.476 1.56276 16.4754M0.98188 6.66646H14.2053V3.83288C14.2053 3.68805 14.1448 3.55487 14.0239 3.43334C13.903 3.31181 13.7695 3.25136 13.6234 3.25199H1.56371C1.41825 3.25199 1.28476 3.31244 1.16323 3.43334C1.0417 3.55424 0.981251 3.68774 0.98188 3.83382V6.66646Z" fill="#1C0D0D"/>
</svg>
