<svg width="26" height="26" viewBox="0 0 26 26" fill="none" xmlns="http://www.w3.org/2000/svg">
<path fill-rule="evenodd" clip-rule="evenodd" d="M26 13.0792C26 19.608 21.2474 25.0205 15.031 26V16.8604H18.0586L18.6348 13.0792H15.0345V10.6269C15.0345 9.59335 15.5392 8.58504 17.1532 8.58504H18.7923V5.36565C18.7923 5.36565 17.3035 5.10997 15.8827 5.10997C12.9123 5.10997 10.9726 6.92133 10.9726 10.1983V13.0792H7.66937V16.8604H10.969V26C4.75265 25.0169 0 19.608 0 13.0792C0.0035788 5.8554 5.82271 0 13.0018 0C20.1809 0 26 5.8554 26 13.0792Z" fill="#164AA0"/>
<path d="M15.031 26V16.8604H18.0586L18.6348 13.0792H15.0345V10.6269C15.0345 9.59335 15.5392 8.58504 17.1532 8.58504H18.7923V5.36565C18.7923 5.36565 17.3035 5.10997 15.8827 5.10997C12.9123 5.10997 10.9726 6.92133 10.9726 10.1983V13.0792H7.66937V16.8604H10.969V26H15.031Z" fill="white"/>
</svg>
