<svg width="26" height="26" viewBox="0 0 26 26" fill="none" xmlns="http://www.w3.org/2000/svg">
<rect width="26" height="26" rx="13" fill="#0A66C2"/>
<path d="M18.9665 6H7.03347C6.75938 6 6.49651 6.10888 6.3027 6.3027C6.10888 6.49651 6 6.75938 6 7.03347V18.9665C6 19.2406 6.10888 19.5035 6.3027 19.6973C6.49651 19.8911 6.75938 20 7.03347 20H18.9665C19.2406 20 19.5035 19.8911 19.6973 19.6973C19.8911 19.5035 20 19.2406 20 18.9665V7.03347C20 6.75938 19.8911 6.49651 19.6973 6.3027C19.5035 6.10888 19.2406 6 18.9665 6ZM10.1728 17.9262H8.06792V11.2403H10.1728V17.9262ZM9.11889 10.3138C8.88013 10.3124 8.64712 10.2404 8.44926 10.1067C8.25141 9.97307 8.09757 9.78381 8.00718 9.56282C7.91678 9.34183 7.89388 9.09901 7.94135 8.86502C7.98883 8.63102 8.10455 8.41633 8.27392 8.24804C8.4433 8.07975 8.65873 7.96541 8.89302 7.91944C9.12732 7.87346 9.36998 7.89793 9.59039 7.98974C9.81079 8.08155 9.99906 8.2366 10.1314 8.43531C10.2638 8.63402 10.3344 8.86749 10.3342 9.10625C10.3364 9.2661 10.3065 9.42477 10.2461 9.5728C10.1857 9.72083 10.0962 9.85519 9.98275 9.96787C9.86934 10.0806 9.73441 10.1692 9.586 10.2287C9.43758 10.2881 9.27872 10.317 9.11889 10.3138ZM17.9311 17.9321H15.8272V14.2794C15.8272 13.2022 15.3693 12.8697 14.7782 12.8697C14.154 12.8697 13.5415 13.3403 13.5415 14.3067V17.9321H11.4367V11.2451H13.4608V12.1717H13.4881C13.6913 11.7604 14.4029 11.0575 15.4889 11.0575C16.6633 11.0575 17.9321 11.7546 17.9321 13.7963L17.9311 17.9321Z" fill="white"/>
</svg>
