<svg width="20" height="20" viewBox="0 0 20 20" fill="none" xmlns="http://www.w3.org/2000/svg">
<path d="M1.84675 18.6874C2.04422 18.7966 2.26584 18.8579 2.5 18.8579H17.5C17.7342 18.8579 17.9558 18.7966 18.1533 18.6874L12.2446 12.3362L10.3179 14.1484C10.1332 14.3221 9.86678 14.3221 9.68215 14.1484L7.75538 12.3362L1.84675 18.6874ZM1.1431 17.876C1.14773 17.8706 1.15247 17.8653 1.15732 17.8601L6.9772 11.6043L1.18215 6.15391C1.16951 6.14202 1.15752 6.12958 1.14617 6.11663C1.05247 6.34026 1 6.59072 1 6.85518V17.1448C1 17.4064 1.05132 17.6542 1.1431 17.876ZM18.8569 17.876C18.9487 17.6542 19 17.4064 19 17.1448V6.85518C19 6.59072 18.9475 6.34026 18.8538 6.11663C18.8425 6.12958 18.8305 6.14203 18.8179 6.15391L13.0228 11.6043L18.8427 17.8601C18.8475 17.8653 18.8523 17.8706 18.8569 17.876ZM18.1444 5.30778C17.9492 5.20154 17.7307 5.14207 17.5 5.14207H2.5C2.26933 5.14207 2.05081 5.20154 1.85557 5.30778L10 12.9679L18.1444 5.30778ZM2.5 4H17.5C18.8807 4 20 5.27831 20 6.85518V17.1448C20 18.7217 18.8807 20 17.5 20H2.5C1.11929 20 0 18.7217 0 17.1448V6.85518C0 5.27831 1.11929 4 2.5 4Z" fill="#7D7C86"/>
</svg>
