<svg width="20" height="22" viewBox="0 0 20 22" fill="none" xmlns="http://www.w3.org/2000/svg">
<path d="M5.35233 2.50031C3.79633 2.54731 2.86933 2.72031 2.22733 3.36231C1.34833 4.2423 1.34833 5.6573 1.34833 8.4883V14.9943C1.34833 17.8263 1.34833 19.2413 2.22733 20.1213C3.10533 21.0003 4.52033 21.0003 7.34833 21.0003H12.3483C15.1773 21.0003 16.5913 21.0003 17.4693 20.1203C18.3493 19.2413 18.3493 17.8263 18.3493 14.9943V8.4883C18.3493 5.6583 18.3493 4.2423 17.4693 3.36231C16.8283 2.72031 15.9003 2.54731 14.3443 2.50031" stroke="#1C0D0D" stroke-width="1.53002" stroke-linecap="round" stroke-linejoin="round"/>
<path d="M11.3533 10H14.8533M4.85327 11C4.85327 11 5.35327 11 5.85327 12C5.85327 12 7.44127 9.5 8.85327 9M11.3533 16H14.8533M5.85327 16H6.85327M5.34927 2.75C5.34927 1.784 6.13327 1 7.09927 1H12.5993C13.0634 1 13.5085 1.18437 13.8367 1.51256C14.1649 1.84075 14.3493 2.28587 14.3493 2.75C14.3493 3.21413 14.1649 3.65925 13.8367 3.98744C13.5085 4.31563 13.0634 4.5 12.5993 4.5H7.09927C6.63514 4.5 6.19002 4.31563 5.86183 3.98744C5.53365 3.65925 5.34927 3.21413 5.34927 2.75Z" stroke="#1C0D0D" stroke-width="1.53002" stroke-linecap="round" stroke-linejoin="round"/>
</svg>
