<svg width="24" height="20" viewBox="0 0 24 20" fill="none" xmlns="http://www.w3.org/2000/svg">
<path d="M4.96376 5.32796C4.96376 4.53139 5.27786 3.76745 5.83698 3.20419C6.3961 2.64093 7.15442 2.3245 7.94513 2.3245C8.73584 2.3245 9.49417 2.64093 10.0533 3.20419C10.6124 3.76745 10.9265 4.53139 10.9265 5.32796C10.9265 6.12452 10.6124 6.88847 10.0533 7.45172C9.49417 8.01498 8.73584 8.33142 7.94513 8.33142C7.15442 8.33142 6.3961 8.01498 5.83698 7.45172C5.27786 6.88847 4.96376 6.12452 4.96376 5.32796ZM7.94513 0.989624C6.803 0.989624 5.70764 1.4467 4.90002 2.26029C4.09241 3.07389 3.6387 4.17736 3.6387 5.32796C3.6387 6.47855 4.09241 7.58203 4.90002 8.39562C5.70764 9.20922 6.803 9.66629 7.94513 9.66629C9.08727 9.66629 10.1826 9.20922 10.9902 8.39562C11.7979 7.58203 12.2516 6.47855 12.2516 5.32796C12.2516 4.17736 11.7979 3.07389 10.9902 2.26029C10.1826 1.4467 9.08727 0.989624 7.94513 0.989624ZM15.4807 16.5342C16.1936 16.8279 17.0907 17.0081 18.2143 17.0081C20.7068 17.0081 22.0848 16.1164 22.8109 15.0939C23.1906 14.5577 23.4282 13.9329 23.5013 13.2785C23.5078 13.2177 23.5122 13.1567 23.5145 13.0956V13.0035C23.5145 12.7405 23.4631 12.4802 23.3633 12.2372C23.2634 11.9943 23.117 11.7736 22.9324 11.5876C22.7478 11.4017 22.5287 11.2542 22.2876 11.1536C22.0464 11.053 21.788 11.0012 21.527 11.0012H15.392C15.71 11.3883 15.9485 11.8408 16.0876 12.336H21.527C21.7027 12.336 21.8712 12.4064 21.9954 12.5315C22.1197 12.6567 22.1895 12.8265 22.1895 13.0035V13.0756L22.1829 13.1423C22.1331 13.5658 21.9782 13.9698 21.7323 14.317C21.2991 14.9297 20.3583 15.6732 18.2143 15.6732C17.2444 15.6732 16.5209 15.521 15.979 15.2981C15.8703 15.6719 15.7126 16.0937 15.4807 16.5342ZM0.988586 13.6709C0.988586 12.9628 1.26779 12.2838 1.76479 11.7831C2.26178 11.2824 2.93585 11.0012 3.6387 11.0012H12.2516C12.9544 11.0012 13.6285 11.2824 14.1255 11.7831C14.6225 12.2838 14.9017 12.9628 14.9017 13.6709V13.783L14.899 13.8364L14.8858 14.0166C14.7919 14.8817 14.4869 15.7099 13.998 16.4274C13.0691 17.7823 11.275 19.0104 7.94513 19.0104C4.61527 19.0104 2.82114 17.7823 1.89227 16.4287C1.40319 15.7109 1.09819 14.8822 1.00449 14.0166C0.996928 13.9389 0.991625 13.861 0.988586 13.783V13.6709ZM2.31364 13.751V13.775L2.32292 13.8858C2.39482 14.5257 2.6214 15.138 2.9828 15.6692C3.6281 16.609 4.98098 17.6755 7.94513 17.6755C10.9093 17.6755 12.2622 16.609 12.9075 15.6692C13.2689 15.138 13.4954 14.5257 13.5673 13.8858C13.5726 13.8351 13.5753 13.7982 13.5753 13.775L13.5766 13.7523V13.6709C13.5766 13.3169 13.437 12.9773 13.1885 12.727C12.94 12.4767 12.603 12.336 12.2516 12.336H3.6387C3.28727 12.336 2.95024 12.4767 2.70174 12.727C2.45325 12.9773 2.31364 13.3169 2.31364 13.6709V13.751ZM16.2267 6.32911C16.2267 5.79807 16.4361 5.28877 16.8089 4.91327C17.1816 4.53776 17.6872 4.3268 18.2143 4.3268C18.7415 4.3268 19.247 4.53776 19.6198 4.91327C19.9925 5.28877 20.2019 5.79807 20.2019 6.32911C20.2019 6.86016 19.9925 7.36945 19.6198 7.74496C19.247 8.12046 18.7415 8.33142 18.2143 8.33142C17.6872 8.33142 17.1816 8.12046 16.8089 7.74496C16.4361 7.36945 16.2267 6.86016 16.2267 6.32911ZM18.2143 2.99193C17.3358 2.99193 16.4932 3.34353 15.8719 3.96937C15.2507 4.59521 14.9017 5.44404 14.9017 6.32911C14.9017 7.21419 15.2507 8.06301 15.8719 8.68885C16.4932 9.3147 17.3358 9.66629 18.2143 9.66629C19.0929 9.66629 19.9355 9.3147 20.5567 8.68885C21.178 8.06301 21.527 7.21419 21.527 6.32911C21.527 5.44404 21.178 4.59521 20.5567 3.96937C19.9355 3.34353 19.0929 2.99193 18.2143 2.99193Z" fill="#1C0D0D"/>
</svg>
