<svg width="21" height="22" viewBox="0 0 21 22" fill="none" xmlns="http://www.w3.org/2000/svg">
<path d="M6.59936 12.5004H2.72436C2.21095 12.5033 1.71956 12.7093 1.35756 13.0734C0.995549 13.4375 0.792351 13.93 0.792359 14.4434V18.3184C0.792096 18.5722 0.841889 18.8236 0.938888 19.0581C1.03589 19.2926 1.17819 19.5057 1.35764 19.6851C1.5371 19.8646 1.75018 20.0069 1.9847 20.1039C2.21922 20.2009 2.47057 20.2507 2.72436 20.2504H6.59936C7.11284 20.251 7.60559 20.0479 7.96962 19.6858C8.33364 19.3236 8.53924 18.8319 8.54136 18.3184V14.4434C8.54162 14.1883 8.49157 13.9357 8.39407 13.6999C8.29657 13.4642 8.15353 13.25 7.97315 13.0696C7.79276 12.8893 7.57857 12.7462 7.34284 12.6487C7.10711 12.5512 6.85446 12.5012 6.59936 12.5014M6.59936 1.75043H2.72436C2.47057 1.75017 2.21922 1.79996 1.9847 1.89696C1.75018 1.99396 1.5371 2.13626 1.35764 2.31571C1.17819 2.49517 1.03589 2.70825 0.938888 2.94277C0.841889 3.17729 0.792096 3.42864 0.792359 3.68243V7.55743C0.791826 8.07091 0.994886 8.56366 1.35703 8.92769C1.71918 9.29171 2.21088 9.49731 2.72436 9.49943H6.59936C6.85446 9.49969 7.10711 9.44964 7.34284 9.35214C7.57857 9.25464 7.79276 9.1116 7.97315 8.93122C8.15353 8.75083 8.29657 8.53664 8.39407 8.30091C8.49157 8.06518 8.54162 7.81253 8.54136 7.55743V3.68243C8.53924 3.16895 8.33364 2.67725 7.96962 2.3151C7.60559 1.95295 7.11284 1.74989 6.59936 1.75043ZM17.3604 1.75043H13.4854C12.9719 1.74989 12.4791 1.95295 12.1151 2.3151C11.7511 2.67725 11.5455 3.16895 11.5434 3.68243V7.55743C11.5436 8.0724 11.7483 8.5662 12.1124 8.93034C12.4766 9.29447 12.9704 9.49916 13.4854 9.49943H17.3604C17.8738 9.49731 18.3655 9.29171 18.7277 8.92769C19.0898 8.56366 19.2929 8.07091 19.2924 7.55743V3.68243C19.2926 3.42864 19.2428 3.17729 19.1458 2.94277C19.0488 2.70825 18.9065 2.49517 18.7271 2.31571C18.5476 2.13626 18.3345 1.99396 18.1 1.89696C17.8655 1.79996 17.6141 1.75017 17.3604 1.75043ZM15.4174 12.5004C14.3896 12.5004 13.404 12.9087 12.6773 13.6354C11.9506 14.3621 11.5424 15.3477 11.5424 16.3754C11.5424 17.4031 11.9506 18.3888 12.6773 19.1155C13.404 19.8422 14.3896 20.2504 15.4174 20.2504C16.4451 20.2504 17.4307 19.8422 18.1574 19.1155C18.8841 18.3888 19.2924 17.4031 19.2924 16.3754C19.2924 15.3477 18.8841 14.3621 18.1574 13.6354C17.4307 12.9087 16.4451 12.5004 15.4174 12.5004Z" stroke="#1C0D0D" stroke-width="1.53002" stroke-linecap="round" stroke-linejoin="round"/>
</svg>
