<svg width="25" height="19" viewBox="0 0 25 19" fill="none" xmlns="http://www.w3.org/2000/svg">
<path d="M6.5033 8.28618C6.5033 7.64208 6.75916 7.02436 7.21461 6.56892C7.67005 6.11347 8.28777 5.8576 8.93187 5.8576H21.0747C21.7188 5.8576 22.3365 6.11347 22.792 6.56892C23.2474 7.02436 23.5033 7.64208 23.5033 8.28618V15.5719C23.5033 16.216 23.2474 16.8337 22.792 17.2891C22.3365 17.7446 21.7188 18.0005 21.0747 18.0005H8.93187C8.28777 18.0005 7.67005 17.7446 7.21461 17.2891C6.75916 16.8337 6.5033 16.216 6.5033 15.5719V8.28618Z" stroke="#1C0D0D" stroke-width="1.53002" stroke-linecap="round" stroke-linejoin="round"/>
<path d="M18.6473 5.85745V3.42888C18.6473 2.78478 18.3915 2.16706 17.936 1.71162C17.4806 1.25617 16.8629 1.00031 16.2188 1.00031H4.07591C3.43181 1.00031 2.8141 1.25617 2.35865 1.71162C1.90321 2.16706 1.64734 2.78478 1.64734 3.42888V10.7146C1.64734 11.3587 1.90321 11.9764 2.35865 12.4319C2.8141 12.8873 3.43181 13.1432 4.07591 13.1432H6.50448M12.5759 11.9289C12.5759 12.573 12.8318 13.1907 13.2872 13.6461C13.7427 14.1016 14.3604 14.3575 15.0045 14.3575C15.6486 14.3575 16.2663 14.1016 16.7217 13.6461C17.1772 13.1907 17.4331 12.573 17.4331 11.9289C17.4331 11.2848 17.1772 10.6671 16.7217 10.2116C16.2663 9.75617 15.6486 9.50031 15.0045 9.50031C14.3604 9.50031 13.7427 9.75617 13.2872 10.2116C12.8318 10.6671 12.5759 11.2848 12.5759 11.9289Z" stroke="#1C0D0D" stroke-width="1.53002" stroke-linecap="round" stroke-linejoin="round"/>
</svg>
