<svg width="24" height="20" viewBox="0 0 24 20" fill="none" xmlns="http://www.w3.org/2000/svg">
<path d="M21.4635 6.12063C21.8835 5.93733 22.2522 5.65392 22.5374 5.2952C22.8226 4.93647 23.0155 4.51335 23.0994 4.06282C23.1832 3.61229 23.1554 3.14808 23.0184 2.71078C22.8814 2.27348 22.6394 1.8764 22.3134 1.55426C21.9875 1.23213 21.5876 0.994745 21.1487 0.862869C20.7098 0.730994 20.2453 0.708643 19.7958 0.797771C19.3463 0.886898 18.9255 1.08479 18.5701 1.37414C18.2148 1.6635 17.9357 2.0355 17.7573 2.45763C17.5747 2.89048 17.5037 3.36228 17.5509 3.82971C17.5955 4.26931 17.7431 4.69218 17.982 5.06393C18.2208 5.43567 18.544 5.74578 18.9253 5.96904C19.3066 6.1923 19.7352 6.32239 20.1763 6.34873C20.6173 6.37507 21.0584 6.29692 21.4635 6.12063ZM3.09244 2.42734H16.286C16.1599 2.88346 16.1118 3.35757 16.1435 3.82971H3.09244C2.68332 3.82971 2.29095 3.99224 2.00165 4.28153C1.71236 4.57083 1.54983 4.9632 1.54983 5.37232V6.07295L10.8055 11.163L18.1349 7.13202C18.67 7.46186 19.2848 7.67614 19.9428 7.73784L11.1432 12.5777C11.0514 12.6282 10.9495 12.6574 10.845 12.6634C10.7405 12.6693 10.6359 12.6517 10.539 12.6119L10.4678 12.5783L1.54983 7.67221V16.3108C1.54983 16.72 1.71236 17.1123 2.00165 17.4016C2.29095 17.6909 2.68332 17.8534 3.09244 17.8534H18.5186C18.9277 17.8534 19.32 17.6909 19.6093 17.4016C19.8986 17.1123 20.0612 16.72 20.0612 16.3108V7.74738C20.5333 7.77803 21.0072 7.72988 21.4635 7.6049V16.3108C21.4635 17.9376 20.1453 19.2558 18.5186 19.2558H3.09244C2.31139 19.2558 1.56232 18.9455 1.01003 18.3933C0.457735 17.841 0.147461 17.0919 0.147461 16.3108V5.37232C0.147461 3.74557 1.46569 2.42734 3.09244 2.42734Z" fill="#1C0D0D"/>
</svg>
