<svg width="22" height="22" viewBox="0 0 22 22" fill="none" xmlns="http://www.w3.org/2000/svg">
<path d="M14.5735 1.01392H7.55621C3.9788 1.01392 1.07874 3.91398 1.07874 7.49139V14.5087C1.07874 18.0861 3.9788 20.9861 7.55621 20.9861H14.5735C18.1509 20.9861 21.051 18.0861 21.051 14.5087V7.49139C21.051 3.91398 18.1509 1.01392 14.5735 1.01392Z" stroke="#1C0D0D" stroke-width="1.53002"/>
<path d="M5.66541 14.239L8.31038 10.7195C8.47235 10.5028 8.7098 10.3548 8.97571 10.3048C9.24162 10.2548 9.5166 10.3065 9.74622 10.4496L12.3264 12.0798C12.5648 12.2316 12.8533 12.2839 13.1299 12.2254C13.4064 12.1668 13.649 12.0021 13.8054 11.7667L16.4612 7.76147" stroke="#1C0D0D" stroke-width="1.53002" stroke-linecap="round" stroke-linejoin="round"/>
</svg>
