<svg width="20" height="22" viewBox="0 0 20 22" fill="none" xmlns="http://www.w3.org/2000/svg">
<path d="M10.2452 0.495483C11.7219 0.495483 13.1079 0.87483 14.3028 1.53869C13.959 1.84747 13.6703 2.21264 13.4493 2.61847C12.4581 2.11099 11.36 1.84762 10.2465 1.85029C6.69284 1.85029 3.78407 4.45695 3.49956 7.79114L3.48059 8.07836L3.47381 8.35609V13.3662L3.42233 13.6263L2.11765 16.76L18.3185 16.7627L18.3794 16.76L17.0748 13.6263L17.0219 13.3662V8.62434C17.4975 8.62434 17.954 8.54305 18.3767 8.39403V13.228L19.6299 16.2384C19.6597 16.3115 19.6837 16.387 19.7017 16.4646L19.7221 16.5811L19.7342 16.76C19.7327 17.0591 19.6321 17.3493 19.4483 17.5853C19.2645 17.8213 19.0078 17.9899 18.7181 18.0647L18.561 18.1012L18.3794 18.1148L13.6349 18.1134L13.6281 18.3316C13.5737 19.1911 13.1939 19.9976 12.5659 20.587C11.938 21.1764 11.1091 21.5045 10.2479 21.5045C9.38663 21.5045 8.55775 21.1764 7.92981 20.587C7.30187 19.9976 6.92206 19.1911 6.86761 18.3316L6.86084 18.1134H2.119C2.00008 18.1136 1.88164 18.0981 1.76675 18.0674L1.5974 18.0105C1.32392 17.8952 1.09585 17.6933 0.948262 17.4358C0.800669 17.1783 0.741713 16.8795 0.780453 16.5852L0.810258 16.4118L0.86716 16.2384L2.11765 13.2321L2.119 8.3439L2.12578 8.03907C2.29107 3.81612 5.87183 0.495483 10.2452 0.495483ZM12.2801 18.1134H8.21565L8.22513 18.3045C8.27072 18.7736 8.47795 19.2123 8.81136 19.5454C9.14477 19.8786 9.58361 20.0855 10.0528 20.1307L10.2479 20.1402C10.7528 20.1402 11.2397 19.9522 11.6137 19.6129C11.9876 19.2735 12.2218 18.8071 12.2706 18.3045L12.2801 18.1134ZM14.5927 3.35955C14.796 2.94633 15.1021 2.59408 15.4774 2.33396C16.0194 1.95808 16.6798 1.79276 17.3349 1.86899C17.99 1.94521 18.5948 2.25774 19.0359 2.748C19.4771 3.23826 19.7243 3.87259 19.7312 4.53207C19.7381 5.19155 19.5042 5.83092 19.0734 6.33031C18.6427 6.8297 18.0445 7.15483 17.3912 7.24476C16.7378 7.33469 16.0741 7.18324 15.5244 6.81879C14.9747 6.45435 14.5768 5.90194 14.4053 5.26511C14.2338 4.62828 14.3004 3.95076 14.5927 3.35955Z" fill="#1C0D0D"/>
</svg>
