<svg width="21" height="22" viewBox="0 0 21 22" fill="none" xmlns="http://www.w3.org/2000/svg">
<path d="M7.46082 20.0002C8.25682 20.6222 9.30882 21.0002 10.4608 21.0002C11.6128 21.0002 12.6648 20.6222 13.4608 20.0002M0.990821 13.3942C0.777821 14.7472 1.72882 15.6862 2.89282 16.1542C7.35582 17.9492 13.5658 17.9492 18.0288 16.1542C19.1928 15.6862 20.1438 14.7472 19.9308 13.3942C19.8008 12.5622 19.1538 11.8702 18.6748 11.1942C18.0478 10.2972 17.9858 9.32024 17.9848 8.27924C17.9858 4.26024 14.6178 1.00024 10.4608 1.00024C6.30382 1.00024 2.93582 4.26024 2.93582 8.28024C2.93582 9.32024 2.87382 10.2982 2.24582 11.1942C1.76782 11.8702 1.12182 12.5622 0.990821 13.3942Z" stroke="#1C0D0D" stroke-width="1.53002" stroke-linecap="round" stroke-linejoin="round"/>
</svg>
