<svg width="21" height="22" viewBox="0 0 21 22" fill="none" xmlns="http://www.w3.org/2000/svg">
<path fill-rule="evenodd" clip-rule="evenodd" d="M10.6682 7.2511C9.67359 7.2511 8.71976 7.64619 8.0165 8.34945C7.31324 9.05271 6.91815 10.0065 6.91815 11.0011C6.91815 11.9957 7.31324 12.9495 8.0165 13.6527C8.71976 14.356 9.67359 14.7511 10.6682 14.7511C11.6627 14.7511 12.6165 14.356 13.3198 13.6527C14.0231 12.9495 14.4182 11.9957 14.4182 11.0011C14.4182 10.0065 14.0231 9.05271 13.3198 8.34945C12.6165 7.64619 11.6627 7.2511 10.6682 7.2511ZM8.41815 11.0011C8.41815 10.4044 8.65521 9.83207 9.07716 9.41011C9.49912 8.98815 10.0714 8.7511 10.6682 8.7511C11.2649 8.7511 11.8372 8.98815 12.2591 9.41011C12.6811 9.83207 12.9182 10.4044 12.9182 11.0011C12.9182 11.5978 12.6811 12.1701 12.2591 12.5921C11.8372 13.014 11.2649 13.2511 10.6682 13.2511C10.0714 13.2511 9.49912 13.014 9.07716 12.5921C8.65521 12.1701 8.41815 11.5978 8.41815 11.0011Z" fill="#1C0D0D"/>
<path fill-rule="evenodd" clip-rule="evenodd" d="M10.643 0.250793C10.198 0.250793 9.82699 0.250793 9.52299 0.270793C9.2122 0.28331 8.90567 0.347522 8.61599 0.460793C8.28224 0.598883 7.97896 0.801367 7.72347 1.05668C7.46799 1.31199 7.2653 1.61514 7.12699 1.94879C6.98199 2.29879 6.94299 2.66879 6.92699 3.07079C6.9252 3.21778 6.8862 3.36191 6.81363 3.48974C6.74106 3.61757 6.63728 3.72493 6.51199 3.80179C6.38281 3.87211 6.23792 3.90854 6.09084 3.90767C5.94377 3.90679 5.79932 3.86865 5.67099 3.79679C5.31499 3.60879 4.97499 3.45779 4.59899 3.40779C4.24093 3.3607 3.87711 3.38458 3.52828 3.4781C3.17946 3.57161 2.85247 3.73291 2.56599 3.95279C2.32338 4.14727 2.11486 4.3808 1.94899 4.64379C1.77899 4.89779 1.59299 5.21879 1.37099 5.60379L1.34599 5.64779C1.12299 6.03279 0.937988 6.35379 0.803988 6.62779C0.663988 6.91379 0.553988 7.19579 0.513988 7.50779C0.418588 8.23078 0.614267 8.96206 1.05799 9.54079C1.28899 9.84179 1.58999 10.0608 1.92999 10.2748C2.05662 10.3499 2.16213 10.4559 2.23664 10.5828C2.31114 10.7098 2.35221 10.8536 2.35599 11.0008C2.35221 11.148 2.31114 11.2918 2.23664 11.4187C2.16213 11.5457 2.05662 11.6517 1.92999 11.7268C1.58999 11.9408 1.28999 12.1598 1.05799 12.4608C0.838104 12.7473 0.676802 13.0743 0.583291 13.4231C0.489779 13.7719 0.46589 14.1357 0.512988 14.4938C0.553988 14.8058 0.662988 15.0878 0.802988 15.3738C0.937988 15.6478 1.12299 15.9688 1.34599 16.3538L1.37099 16.3978C1.59299 16.7828 1.77899 17.1038 1.94899 17.3578C2.12599 17.6208 2.31599 17.8578 2.56599 18.0478C2.8524 18.2679 3.17935 18.4293 3.52818 18.523C3.877 18.6167 4.24087 18.6408 4.59899 18.5938C4.97499 18.5438 5.31499 18.3938 5.67099 18.2048C5.7992 18.1331 5.94346 18.0951 6.09034 18.0942C6.23722 18.0933 6.38193 18.1296 6.51099 18.1998C6.6373 18.2757 6.74199 18.3828 6.81501 18.5108C6.88803 18.6388 6.92694 18.7834 6.92799 18.9308C6.94299 19.3328 6.98199 19.7028 7.12799 20.0528C7.26608 20.3865 7.46856 20.6898 7.72387 20.9453C7.97919 21.2008 8.28233 21.4035 8.61599 21.5418C8.90599 21.6618 9.20599 21.7088 9.52299 21.7298C9.82699 21.7508 10.198 21.7508 10.643 21.7508H10.693C11.138 21.7508 11.509 21.7508 11.813 21.7308C12.131 21.7088 12.43 21.6618 12.72 21.5408C13.0537 21.4027 13.357 21.2002 13.6125 20.9449C13.868 20.6896 14.0707 20.3864 14.209 20.0528C14.354 19.7028 14.393 19.3328 14.409 18.9308C14.4106 18.7836 14.4495 18.6393 14.5221 18.5113C14.5947 18.3833 14.6985 18.2757 14.824 18.1988C14.9532 18.1286 15.0982 18.0924 15.2453 18.0934C15.3923 18.0945 15.5367 18.1328 15.665 18.2048C16.021 18.3928 16.361 18.5438 16.737 18.5928C17.46 18.6882 18.1913 18.4925 18.77 18.0488C19.02 17.8568 19.21 17.6208 19.387 17.3578C19.557 17.1038 19.743 16.7828 19.965 16.3978L19.99 16.3538C20.213 15.9688 20.398 15.6478 20.532 15.3738C20.672 15.0878 20.782 14.8048 20.822 14.4938C20.9174 13.7708 20.7217 13.0395 20.278 12.4608C20.047 12.1598 19.746 11.9408 19.406 11.7268C19.2794 11.6517 19.1738 11.5457 19.0993 11.4187C19.0248 11.2918 18.9838 11.148 18.98 11.0008C18.98 10.7228 19.132 10.4468 19.406 10.2748C19.746 10.0608 20.046 9.84179 20.278 9.54079C20.4979 9.25431 20.6592 8.92732 20.7527 8.5785C20.8462 8.22967 20.8701 7.86585 20.823 7.50779C20.7759 7.20039 20.6779 6.90299 20.533 6.62779C20.3622 6.29557 20.1811 5.96875 19.99 5.64779L19.965 5.60379C19.7823 5.27787 19.5896 4.95772 19.387 4.64379C19.221 4.38116 19.0125 4.14797 18.77 3.95379C18.4836 3.73374 18.1566 3.57225 17.8078 3.47857C17.459 3.38489 17.0951 3.36084 16.737 3.40779C16.361 3.45779 16.021 3.60779 15.665 3.79679C15.5368 3.86847 15.3925 3.90652 15.2456 3.90739C15.0988 3.90826 14.954 3.87194 14.825 3.80179C14.6993 3.72517 14.5951 3.61792 14.5222 3.49007C14.4493 3.36222 14.41 3.21796 14.408 3.07079C14.393 2.66879 14.354 2.29879 14.208 1.94879C14.0699 1.61504 13.8674 1.31177 13.6121 1.05628C13.3568 0.800795 13.0536 0.598107 12.72 0.459793C12.43 0.339793 12.13 0.292793 11.813 0.271793C11.509 0.250793 11.138 0.250793 10.693 0.250793H10.643ZM9.18999 1.84579C9.26699 1.81379 9.38399 1.78479 9.62499 1.76779C9.87199 1.75079 10.192 1.75079 10.668 1.75079C11.144 1.75079 11.464 1.75079 11.711 1.76779C11.952 1.78479 12.069 1.81379 12.146 1.84579C12.453 1.97279 12.696 2.21579 12.823 2.52279C12.863 2.61879 12.896 2.76979 12.909 3.12679C12.939 3.91879 13.348 4.68179 14.074 5.10079C14.8 5.51979 15.665 5.49279 16.366 5.12279C16.682 4.95579 16.829 4.90879 16.933 4.89579C17.2616 4.85238 17.5939 4.94122 17.857 5.14279C17.923 5.19379 18.007 5.28079 18.142 5.48079C18.281 5.68679 18.441 5.96379 18.679 6.37579C18.917 6.78779 19.076 7.06579 19.185 7.28779C19.292 7.50479 19.325 7.62079 19.335 7.70379C19.3784 8.03236 19.2896 8.36472 19.088 8.62779C19.024 8.71079 18.91 8.81479 18.608 9.00479C17.936 9.42679 17.48 10.1628 17.48 11.0008C17.48 11.8388 17.936 12.5748 18.608 12.9968C18.91 13.1868 19.024 13.2908 19.088 13.3738C19.29 13.6368 19.378 13.9688 19.335 14.2978C19.325 14.3808 19.291 14.4978 19.185 14.7138C19.076 14.9368 18.917 15.2138 18.679 15.6258C18.441 16.0378 18.28 16.3148 18.142 16.5208C18.007 16.7208 17.923 16.8078 17.857 16.8588C17.5939 17.0604 17.2616 17.1492 16.933 17.1058C16.829 17.0928 16.683 17.0458 16.366 16.8788C15.666 16.5088 14.8 16.4808 14.074 16.8998C13.348 17.3188 12.939 18.0828 12.909 18.8748C12.896 19.2318 12.863 19.3828 12.823 19.4788C12.7602 19.6306 12.668 19.7685 12.5519 19.8847C12.4357 20.0008 12.2978 20.093 12.146 20.1558C12.069 20.1878 11.952 20.2168 11.711 20.2338C11.464 20.2508 11.144 20.2508 10.668 20.2508C10.192 20.2508 9.87199 20.2508 9.62499 20.2338C9.38399 20.2168 9.26699 20.1878 9.18999 20.1558C9.03819 20.093 8.90027 20.0008 8.7841 19.8847C8.66794 19.7685 8.57581 19.6306 8.51299 19.4788C8.47299 19.3828 8.43999 19.2318 8.42699 18.8748C8.39699 18.0828 7.98799 17.3198 7.26199 16.9008C6.53599 16.4818 5.67099 16.5088 4.96999 16.8788C4.65399 17.0458 4.50699 17.0928 4.40299 17.1058C4.07442 17.1492 3.74206 17.0604 3.47899 16.8588C3.41299 16.8078 3.32899 16.7208 3.19399 16.5208C3.00587 16.228 2.82678 15.9296 2.65699 15.6258C2.41899 15.2138 2.25999 14.9358 2.15099 14.7138C2.04399 14.4968 2.01099 14.3808 2.00099 14.2978C1.95757 13.9692 2.04642 13.6369 2.24799 13.3738C2.31199 13.2908 2.42599 13.1868 2.72799 12.9968C3.39999 12.5748 3.85599 11.8388 3.85599 11.0008C3.85599 10.1628 3.39999 9.42679 2.72799 9.00479C2.42599 8.81479 2.31199 8.71079 2.24799 8.62779C2.04642 8.36472 1.95757 8.03236 2.00099 7.70379C2.01099 7.62079 2.04499 7.50379 2.15099 7.28779C2.25999 7.06479 2.41899 6.78779 2.65699 6.37579C2.89499 5.96379 3.05599 5.68679 3.19399 5.48079C3.32899 5.28079 3.41299 5.19379 3.47899 5.14279C3.74206 4.94122 4.07442 4.85238 4.40299 4.89579C4.50699 4.90879 4.65299 4.95579 4.96999 5.12279C5.66999 5.49279 6.53599 5.52079 7.26199 5.10079C7.98799 4.68179 8.39699 3.91879 8.42699 3.12679C8.43999 2.76979 8.47299 2.61879 8.51299 2.52279C8.63999 2.21579 8.88299 1.97279 9.18999 1.84579Z" fill="#1C0D0D"/>
</svg>
