<svg width="26" height="26" viewBox="0 0 26 26" fill="none" xmlns="http://www.w3.org/2000/svg">
<g clip-path="url(#clip0_3554_10697)">
<path d="M19.9062 0H6.09375C2.72826 0 0 2.72826 0 6.09375V19.9062C0 23.2717 2.72826 26 6.09375 26H19.9062C23.2717 26 26 23.2717 26 19.9062V6.09375C26 2.72826 23.2717 0 19.9062 0Z" fill="url(#paint0_radial_3554_10697)"/>
<path d="M19.9062 0H6.09375C2.72826 0 0 2.72826 0 6.09375V19.9062C0 23.2717 2.72826 26 6.09375 26H19.9062C23.2717 26 26 23.2717 26 19.9062V6.09375C26 2.72826 23.2717 0 19.9062 0Z" fill="url(#paint1_radial_3554_10697)"/>
<path d="M12.0009 2C9.2851 2 8.9442 2.0119 7.8776 2.0604C6.813 2.1092 6.0863 2.2777 5.4505 2.52499C4.7927 2.78039 4.2348 3.12209 3.679 3.67808C3.1227 4.23398 2.781 4.79187 2.5248 5.44937C2.2768 6.08536 2.1081 6.81235 2.0602 7.87644C2.0125 8.94313 2 9.28413 2 12C2 14.7159 2.012 15.0557 2.0604 16.1223C2.1094 17.1868 2.2779 17.9135 2.525 18.5493C2.7806 19.2071 3.1223 19.765 3.6783 20.3208C4.234 20.8771 4.7919 21.2196 5.4492 21.475C6.0855 21.7223 6.8123 21.8908 7.8767 21.9396C8.9434 21.9881 9.284 22 11.9997 22C14.7158 22 15.0556 21.9881 16.1222 21.9396C17.1868 21.8908 17.9143 21.7223 18.5506 21.475C19.2081 21.2196 19.7652 20.8771 20.3208 20.3208C20.8771 19.765 21.2187 19.2071 21.475 18.5496C21.7208 17.9135 21.8896 17.1866 21.9396 16.1225C21.9875 15.0559 22 14.7159 22 12C22 9.28413 21.9875 8.94333 21.9396 7.87664C21.8896 6.81205 21.7208 6.08546 21.475 5.44967C21.2187 4.79187 20.8771 4.23398 20.3208 3.67808C19.7646 3.12189 19.2083 2.78019 18.55 2.52509C17.9125 2.2777 17.1854 2.1091 16.1208 2.0604C15.0541 2.0119 14.7145 2 11.9978 2H12.0009ZM11.1038 3.80208C11.3701 3.80168 11.6672 3.80208 12.0009 3.80208C14.671 3.80208 14.9874 3.81168 16.0418 3.85958C17.0168 3.90418 17.546 4.06708 17.8985 4.20398C18.3652 4.38518 18.6979 4.60187 19.0477 4.95197C19.3977 5.30197 19.6143 5.63526 19.796 6.10196C19.9329 6.45396 20.096 6.98315 20.1404 7.95814C20.1883 9.01233 20.1987 9.32893 20.1987 11.9977C20.1987 14.6665 20.1883 14.9832 20.1404 16.0373C20.0958 17.0122 19.9329 17.5414 19.796 17.8935C19.6148 18.3602 19.3977 18.6925 19.0477 19.0423C18.6977 19.3923 18.3654 19.6089 17.8985 19.7902C17.5464 19.9277 17.0168 20.0902 16.0418 20.1348C14.9876 20.1827 14.671 20.1931 12.0009 20.1931C9.3307 20.1931 9.0142 20.1827 7.9601 20.1348C6.9851 20.0898 6.4559 19.9269 6.1031 19.79C5.6365 19.6087 5.3031 19.3921 4.9531 19.0421C4.6031 18.6921 4.3865 18.3596 4.2048 17.8927C4.0679 17.5406 3.9048 17.0114 3.8604 16.0365C3.8125 14.9823 3.8029 14.6657 3.8029 11.9952C3.8029 9.32473 3.8125 9.00983 3.8604 7.95564C3.905 6.98065 4.0679 6.45146 4.2048 6.09896C4.3861 5.63226 4.6031 5.29897 4.9532 4.94897C5.3033 4.59897 5.6365 4.38228 6.1032 4.20068C6.4557 4.06318 6.9851 3.90068 7.9601 3.85588C8.8826 3.81418 9.2401 3.80168 11.1038 3.79958V3.80208ZM17.3389 5.46247C16.6764 5.46247 16.1389 5.99946 16.1389 6.66205C16.1389 7.32455 16.6764 7.86204 17.3389 7.86204C18.0014 7.86204 18.5389 7.32455 18.5389 6.66205C18.5389 5.99956 18.0014 5.46207 17.3389 5.46207V5.46247ZM12.0009 6.86455C9.1649 6.86455 6.8655 9.16393 6.8655 12C6.8655 14.8361 9.1649 17.1343 12.0009 17.1343C14.837 17.1343 17.1356 14.8361 17.1356 12C17.1356 9.16403 14.8368 6.86455 12.0007 6.86455H12.0009ZM12.0009 8.66663C13.8418 8.66663 15.3343 10.1589 15.3343 12C15.3343 13.8409 13.8418 15.3334 12.0009 15.3334C10.16 15.3334 8.6676 13.8409 8.6676 12C8.6676 10.1589 10.1599 8.66663 12.0009 8.66663Z" fill="white"/>
</g>
<defs>
<radialGradient id="paint0_radial_3554_10697" cx="0" cy="0" r="1" gradientUnits="userSpaceOnUse" gradientTransform="translate(6.90625 28.0025) rotate(-90) scale(25.7679 23.9662)">
<stop stop-color="#FFDD55"/>
<stop offset="0.1" stop-color="#FFDD55"/>
<stop offset="0.5" stop-color="#FF543E"/>
<stop offset="1" stop-color="#C837AB"/>
</radialGradient>
<radialGradient id="paint1_radial_3554_10697" cx="0" cy="0" r="1" gradientUnits="userSpaceOnUse" gradientTransform="translate(-4.3551 1.87291) rotate(78.681) scale(11.5184 47.4792)">
<stop stop-color="#3771C8"/>
<stop offset="0.128" stop-color="#3771C8"/>
<stop offset="1" stop-color="#6600FF" stop-opacity="0"/>
</radialGradient>
<clipPath id="clip0_3554_10697">
<rect width="26" height="26" fill="white"/>
</clipPath>
</defs>
</svg>
