<svg width="20" height="20" viewBox="0 0 20 20" fill="none" xmlns="http://www.w3.org/2000/svg">
<path d="M17.2192 15C17.8186 15 18.2954 14.6071 18.7236 14.0576C19.5999 12.9328 18.161 12.034 17.6123 11.5938C17.0544 11.1463 16.4315 10.8928 15.8 10.8333M15 9.16667C16.1046 9.16667 17 8.23392 17 7.08333C17 5.93274 16.1046 5 15 5" stroke="#7D7C86" stroke-linecap="round"/>
<path d="M2.97863 15C2.31259 15 1.78282 14.6071 1.30715 14.0576C0.33341 12.9328 1.93215 12.034 2.54191 11.5938C3.16175 11.1463 3.85385 10.8928 4.55556 10.8333M5 9.16667C3.7727 9.16667 2.77778 8.23392 2.77778 7.08333C2.77778 5.93274 3.7727 5 5 5" stroke="#7D7C86" stroke-linecap="round"/>
<path d="M6.98754 12.1112C6.20156 12.743 4.14076 14.0331 5.39592 15.6474C6.00906 16.436 6.69194 17 7.55048 17H12.4495C13.3081 17 13.9909 16.436 14.6041 15.6474C15.8592 14.0331 13.7985 12.743 13.0125 12.1112C11.1693 10.6296 8.83069 10.6296 6.98754 12.1112Z" stroke="#7D7C86" stroke-linecap="round" stroke-linejoin="round"/>
<path d="M13 6C13 7.65686 11.6569 9 10 9C8.34314 9 7 7.65686 7 6C7 4.34314 8.34314 3 10 3C11.6569 3 13 4.34314 13 6Z" stroke="#7D7C86"/>
</svg>
