<svg width="20" height="20" viewBox="0 0 20 20" fill="none" xmlns="http://www.w3.org/2000/svg">
<path d="M4.78256 13.1112C3.68218 13.743 0.797058 15.0331 2.55429 16.6475C3.41269 17.436 4.36872 18 5.57068 18H12.4293C13.6313 18 14.5873 17.436 15.4457 16.6475C17.2029 15.0331 14.3178 13.743 13.2174 13.1112C10.6371 11.6296 7.36294 11.6296 4.78256 13.1112Z" stroke="#7D7C86" stroke-linecap="round" stroke-linejoin="round"/>
<path d="M13 6C13 8.20914 11.2092 10 9 10C6.79086 10 5 8.20914 5 6C5 3.79086 6.79086 2 9 2C11.2092 2 13 3.79086 13 6Z" stroke="#7D7C86"/>
</svg>
