<svg width="23" height="24" viewBox="0 0 23 24" fill="none" xmlns="http://www.w3.org/2000/svg">
<path d="M4.42486 11.9371C4.42486 10.4789 5.61019 9.29354 7.0684 9.29354H10.4794V7.67331H7.0684C4.7148 7.67331 2.80463 9.58348 2.80463 11.9371C2.80463 14.2907 4.7148 16.2009 7.0684 16.2009H10.4794V14.5806H7.0684C5.61019 14.5806 4.42486 13.3953 4.42486 11.9371ZM7.92115 12.7898H14.7432V11.0843H7.92115V12.7898ZM15.5959 7.67331H12.1849V9.29354H15.5959C17.0542 9.29354 18.2395 10.4789 18.2395 11.9371C18.2395 13.3953 17.0542 14.5806 15.5959 14.5806H12.1849V16.2009H15.5959C17.9495 16.2009 19.8597 14.2907 19.8597 11.9371C19.8597 9.58348 17.9495 7.67331 15.5959 7.67331Z" fill="black" fill-opacity="0.54"/>
</svg>
