<svg width="42" height="43" viewBox="0 0 42 43" fill="none" xmlns="http://www.w3.org/2000/svg">
<circle cx="20.9807" cy="21.3988" r="20.9807" fill="#87D3E3"/>
<g clip-path="url(#clip0_3963_1731)">
<path d="M20.9818 29.557L19.6036 27.3621C18.6432 25.8329 18.163 25.0684 17.4021 24.9313C16.1619 24.7075 14.8816 25.5514 13.9883 26.302" stroke="#1C0D0D" stroke-width="1.16559" stroke-linecap="round" stroke-linejoin="round"/>
<path d="M20.9818 18.9479H17.6908M24.2729 23.0274H17.6908M25.0957 13.2365V14.8683M20.9818 13.2365V14.8683M16.868 13.2365V14.8683M13.9883 18.9479V24.6821C13.9883 25.6637 13.9883 26.154 14.2343 26.5481C14.4795 26.943 14.9221 27.1625 15.8074 27.6006L19.0524 29.2105C19.7444 29.5531 19.7518 29.5548 20.5252 29.5548H23.0388C25.3656 29.5548 26.5298 29.5548 27.2522 28.8376C27.9754 28.1212 27.9754 26.9667 27.9754 24.6593V18.9479C27.9754 16.6405 27.9754 15.4859 27.2522 14.7696C26.5298 14.0524 25.3656 14.0524 23.0388 14.0524H18.9249C16.5981 14.0524 15.4339 14.0524 14.7115 14.7696C13.9883 15.4859 13.9883 16.6405 13.9883 18.9479Z" stroke="#1C0D0D" stroke-width="1.16559" stroke-linecap="round" stroke-linejoin="round"/>
</g>
<defs>
<clipPath id="clip0_3963_1731">
<rect width="18.6495" height="18.6495" fill="white" transform="translate(11.6562 12.0743)"/>
</clipPath>
</defs>
</svg>
