<svg width="13" height="16" viewBox="0 0 13 16" fill="none" xmlns="http://www.w3.org/2000/svg">
<path d="M5.71863 14.722L4.73329 13.1526C4.04663 12.0593 3.70329 11.5126 3.15929 11.4146C2.27263 11.2546 1.35729 11.858 0.718628 12.3946" stroke="#1C0D0D" stroke-linecap="round" stroke-linejoin="round"/>
<path d="M6.38529 6.05534H3.71863M9.05196 9.38867H3.71863M9.71863 1.38867V2.72201M6.38529 1.38867V2.72201M3.05196 1.38867V2.72201M0.718628 6.05534V10.7407C0.718628 11.5427 0.718628 11.9433 0.917961 12.2653C1.11663 12.588 1.47529 12.7673 2.19263 13.1253L4.82196 14.4407C5.38263 14.7207 5.38863 14.722 6.01529 14.722H8.05196C9.93729 14.722 10.8806 14.722 11.466 14.136C12.052 13.5507 12.052 12.6073 12.052 10.722V6.05534C12.052 4.17 12.052 3.22667 11.466 2.64134C10.8806 2.05534 9.93729 2.05534 8.05196 2.05534H4.71863C2.83329 2.05534 1.88996 2.05534 1.30463 2.64134C0.718628 3.22667 0.718628 4.17 0.718628 6.05534Z" stroke="#1C0D0D" stroke-linecap="round" stroke-linejoin="round"/>
</svg>
