<svg width="19" height="18" viewBox="0 0 19 18" fill="none" xmlns="http://www.w3.org/2000/svg">
<g clip-path="url(#clip0_3585_2228)">
<path d="M15.3637 2H4.16373C3.03253 2 2.46693 2 2.11573 2.32045C1.76453 2.6409 1.76373 3.15735 1.76373 4.18947V4.72614C1.76373 5.53271 1.76373 5.93638 1.97173 6.27082C2.17973 6.60527 2.55813 6.81372 3.31733 7.22906L5.64773 8.50463C6.15653 8.78307 6.41173 8.9223 6.59413 9.0763C6.97333 9.39597 7.20693 9.77242 7.31253 10.2352C7.36373 10.4561 7.36373 10.7159 7.36373 11.2347V13.3113C7.36373 14.0184 7.36373 14.3722 7.56533 14.6476C7.76693 14.9237 8.12533 15.0598 8.84053 15.332C10.3437 15.9029 11.0949 16.1884 11.6293 15.8633C12.1637 15.5381 12.1637 14.7961 12.1637 13.3106V11.2339C12.1637 10.7159 12.1637 10.4561 12.2149 10.2344C12.3154 9.7811 12.5685 9.37329 12.9341 9.07552C13.1157 8.9223 13.3709 8.78307 13.8797 8.50385L16.2101 7.22828C16.9685 6.81372 17.3485 6.60605 17.5557 6.2716C17.7637 5.93715 17.7637 5.53271 17.7637 4.72536V4.18869C17.7637 3.15735 17.7637 2.6409 17.4117 2.32045C17.0613 2 16.4957 2 15.3637 2Z" stroke="white"/>
</g>
<defs>
<clipPath id="clip0_3585_2228">
<rect width="18" height="18" fill="white" transform="translate(0.690979)"/>
</clipPath>
</defs>
</svg>
