<svg width="42" height="42" viewBox="0 0 42 42" fill="none" xmlns="http://www.w3.org/2000/svg">
<circle cx="20.9807" cy="21.0237" r="20.9807" fill="#87D3E3"/>
<g clip-path="url(#clip0_3963_1810)">
<path d="M29.8566 28.0738C29.5719 27.8736 26.4569 25.8009 26.0751 25.5675C25.9087 25.4656 25.7058 25.4159 25.4851 25.4159C25.2004 25.4159 24.8851 25.4988 24.5775 25.6609C24.2777 25.8189 23.3695 26.336 22.9252 26.59C22.5338 26.3151 21.6143 25.6103 20.1655 24.159C18.7258 22.7189 18.0151 21.7912 17.7386 21.3975C17.9919 20.9531 18.508 20.0443 18.6651 19.7452C18.9625 19.1812 18.9963 18.6181 18.7549 18.2384C18.5284 17.8805 16.4655 14.7499 16.2526 14.4554C16.0523 14.1775 15.6926 14.0273 15.3023 14.0273C14.9944 14.0273 14.6678 14.1205 14.3846 14.3178C14.3572 14.3373 11.6203 16.323 11.6566 17.4524C11.7575 20.6249 14.8382 24.3531 17.4047 26.9224C19.9713 29.4916 23.6973 32.5753 26.88 32.6769H26.9062C28.0205 32.6769 29.9793 29.9726 29.9982 29.9458C30.5121 29.2111 30.3248 28.4021 29.8566 28.0738ZM29.0531 29.2678C28.3154 30.2904 27.2679 31.3584 26.8579 31.5112C24.6764 31.4088 21.6152 29.4902 18.2271 26.0992C14.8394 22.7079 12.9224 19.648 12.8212 17.4722C12.9684 17.0608 14.0356 16.0059 15.0481 15.2732C15.1232 15.2214 15.2156 15.1914 15.302 15.1914C15.3212 15.1914 15.3372 15.1931 15.3497 15.1955C15.6768 15.6713 17.4329 18.3316 17.7517 18.8289C17.7528 18.8813 17.7351 19.0142 17.6353 19.204C17.5292 19.4062 17.1986 19.9958 16.7283 20.8205L16.3625 21.4621L16.7868 22.0668C17.1032 22.5164 17.8558 23.4939 19.3426 24.982C20.8358 26.4769 21.8091 27.2277 22.2567 27.5425L22.8609 27.9671L23.5021 27.6004C24.1236 27.2451 24.8744 26.8194 25.1187 26.6911C25.3147 26.5878 25.4487 26.5796 25.4851 26.5796C25.4909 26.5796 25.4959 26.5796 25.4999 26.5802C25.9451 26.8598 28.6612 28.6643 29.1407 28.9934C29.1485 29.04 29.1412 29.1413 29.0531 29.2678ZM24.1052 20.9927L29.1077 16.0172L29.0917 18.8372C29.0865 19.0726 29.2729 19.2772 29.5082 19.2717L29.8065 19.2714C30.0421 19.2656 30.2363 19.1259 30.2413 18.8908L30.2532 14.6893C30.2532 14.6853 30.2375 14.6824 30.2375 14.6783L30.2605 14.4653C30.2628 14.3472 30.2355 14.2418 30.1587 14.1664C30.0837 14.0905 29.9781 14.0442 29.8609 14.0474L29.6483 14.0524C29.6443 14.0524 29.6411 14.0541 29.6364 14.0547L25.4658 14.0361C25.2309 14.0413 25.0366 14.2357 25.0311 14.4711L25.0305 14.7697C25.0663 15.0467 25.2838 15.2091 25.5191 15.2039L28.268 15.2111L23.2828 20.1695C23.0557 20.3968 23.0557 20.7655 23.2828 20.9927C23.5099 21.2197 23.8781 21.2197 24.1052 20.9927L24.1052 20.9927Z" fill="#1C0D0D"/>
</g>
<defs>
<clipPath id="clip0_3963_1810">
<rect width="18.6495" height="18.6495" fill="white" transform="translate(11.6562 14.0273)"/>
</clipPath>
</defs>
</svg>
