<svg width="21" height="28" viewBox="0 0 21 28" fill="none" xmlns="http://www.w3.org/2000/svg">
<g clip-path="url(#clip0_2031_4911)">
<g clip-path="url(#clip1_2031_4911)">
<path d="M5.54187 3.46484C4.81414 3.46484 4.21875 4.04731 4.21875 4.7592V22.8802C4.21875 23.5921 4.81414 24.1746 5.54187 24.1746H18.7731C19.5008 24.1746 20.0962 23.5921 20.0962 22.8802V8.64228L14.8037 3.46484H5.54187Z" fill="#E2E5E7"/>
<path d="M15.951 8.98744H20.0929L14.5703 3.46484V7.60679C14.5703 8.36617 15.1916 8.98744 15.951 8.98744Z" fill="#B0B7BD"/>
<path d="M20.1029 13.1293L15.9609 8.9873H20.1029V13.1293Z" fill="#CAD1D8"/>
<path d="M17.3384 20.0897C17.3384 20.4377 17.0407 20.7225 16.6768 20.7225H2.1225C1.75864 20.7225 1.46094 20.4377 1.46094 20.0897V13.7617C1.46094 13.4137 1.75864 13.1289 2.1225 13.1289H16.6768C17.0407 13.1289 17.3384 13.4137 17.3384 13.7617V20.0897Z" fill="#576D7E"/>
<path d="M4.21875 16.9278C4.21875 15.999 4.90019 15.2002 6.1968 15.2002C6.68657 15.2002 7.07555 15.3254 7.48709 15.6288C7.6393 15.7486 7.65548 15.9605 7.50327 16.0953C7.35106 16.2103 7.11992 16.1964 6.98535 16.0809C6.75422 15.8738 6.51745 15.8166 6.1968 15.8166C5.32933 15.8166 4.91216 16.3415 4.91216 16.9284C4.91216 17.5256 5.32369 18.074 6.1968 18.074C6.51745 18.074 6.81623 17.9626 7.07555 17.7657C7.25031 17.6502 7.49272 17.7074 7.59347 17.8236C7.68367 17.9295 7.72877 18.1076 7.53146 18.2756C7.13684 18.5892 6.66402 18.6518 6.19611 18.6518C4.83323 18.6518 4.21875 17.8566 4.21875 16.9278Z" fill="white"/>
<path d="M7.73129 16.2108C7.84905 15.1321 9.34793 14.9381 10.0545 15.5278C10.4027 15.8332 10.034 16.3172 9.72681 16.0724C9.34793 15.8109 8.48843 15.6885 8.3809 16.2664C8.24266 17.1789 10.4686 16.6566 10.4327 18.1352C10.3969 19.5478 8.51403 19.5812 7.80746 18.9469C7.63784 18.7973 7.64362 18.5532 7.73578 18.4023C7.8689 18.2583 8.01672 18.2082 8.19146 18.3633C8.61065 18.6749 9.69097 18.9086 9.76714 18.1179C9.70187 17.2958 7.57257 17.7909 7.73129 16.2108Z" fill="white"/>
<path d="M11.1842 16.2108C11.302 15.1321 12.801 14.9381 13.5076 15.5278C13.8558 15.8332 13.4871 16.3172 13.1799 16.0724C12.801 15.8109 11.9414 15.6885 11.8339 16.2664C11.6956 17.1789 13.9217 16.6566 13.8859 18.1352C13.85 19.5478 11.967 19.5812 11.2604 18.9469C11.0914 18.7973 11.0965 18.5532 11.1887 18.4023C11.3218 18.2583 11.4697 18.2082 11.6444 18.3633C12.0637 18.6749 13.1441 18.9086 13.2209 18.1179C13.1543 17.2958 11.0255 17.7909 11.1842 16.2108Z" fill="white"/>
<path d="M16.6791 20.7226H4.21875V21.4129H16.6791C17.0398 21.4129 17.3349 21.1022 17.3349 20.7226V20.0322C17.3349 20.4119 17.0398 20.7226 16.6791 20.7226Z" fill="#CAD1D8"/>
</g>
</g>
<defs>
<clipPath id="clip0_2031_4911">
<rect width="20.7097" height="27.613" fill="white" transform="translate(0.078125 0.0126953)"/>
</clipPath>
<clipPath id="clip1_2031_4911">
<rect width="20.7097" height="20.7097" fill="white" transform="translate(0.078125 3.46484)"/>
</clipPath>
</defs>
</svg>
