<svg width="22" height="28" viewBox="0 0 22 28" fill="none" xmlns="http://www.w3.org/2000/svg">
<g clip-path="url(#clip0_2031_4896)">
<g clip-path="url(#clip1_2031_4896)">
<path d="M6.42456 3.46484C5.69683 3.46484 5.10144 4.04731 5.10144 4.7592V22.8802C5.10144 23.5921 5.69683 24.1746 6.42456 24.1746H19.6558C20.3835 24.1746 20.9789 23.5921 20.9789 22.8802V8.64228L15.6864 3.46484H6.42456Z" fill="#E2E5E7"/>
<path d="M16.8337 8.98744H20.9756L15.453 3.46484V7.60679C15.453 8.36617 16.0743 8.98744 16.8337 8.98744Z" fill="#B0B7BD"/>
<path d="M20.9778 13.1293L16.8358 8.9873H20.9778V13.1293Z" fill="#CAD1D8"/>
<path d="M18.2133 20.0897C18.2133 20.4377 17.9156 20.7225 17.5517 20.7225H2.99738C2.63352 20.7225 2.33582 20.4377 2.33582 20.0897V13.7617C2.33582 13.4137 2.63352 13.1289 2.99738 13.1289H17.5517C17.9156 13.1289 18.2133 13.4137 18.2133 13.7617V20.0897Z" fill="#50BEE8"/>
<path d="M4.77957 18.6518C4.60097 18.6518 4.40613 18.5613 4.40613 18.3424V15.5096C4.40613 15.33 4.60097 15.2002 4.77957 15.2002H6.01829C8.49029 15.2002 8.4355 18.6518 6.06634 18.6518H4.77957ZM5.12053 15.8084V18.043H6.01829C7.47891 18.043 7.54316 15.8084 6.01829 15.8084H5.12053Z" fill="white"/>
<path d="M10.6716 18.6501C9.62928 18.6881 8.54675 18.1041 8.54675 16.9415C8.54675 15.7741 9.62856 15.2002 10.6716 15.2002C11.6576 15.2423 12.6887 15.8168 12.6887 16.9415C12.6887 18.0667 11.6576 18.6501 10.6716 18.6501ZM10.6096 15.8174C9.97812 15.8174 9.29099 16.1925 9.29099 16.9421C9.29099 17.6875 9.97885 18.0673 10.6096 18.0673C11.258 18.0673 11.9508 17.6875 11.9508 16.9421C11.9508 16.1919 11.258 15.8174 10.6096 15.8174Z" fill="white"/>
<path d="M12.6874 16.9278C12.6874 15.999 13.3694 15.2002 14.6652 15.2002C15.1556 15.2002 15.5445 15.3254 15.9553 15.6288C16.1075 15.7486 16.1244 15.9605 15.9722 16.0953C15.82 16.2103 15.5889 16.1964 15.4536 16.0809C15.2232 15.8738 14.9865 15.8166 14.6652 15.8166C13.7978 15.8166 13.3814 16.3415 13.3814 16.9284C13.3814 17.5256 13.7922 18.074 14.6652 18.074C14.9865 18.074 15.2852 17.9626 15.5445 17.7657C15.7185 17.6502 15.9609 17.7074 16.0624 17.8236C16.1526 17.9295 16.1969 18.1076 16.0004 18.2756C15.6058 18.5892 15.133 18.6518 14.6645 18.6518C13.3018 18.6518 12.6874 17.8566 12.6874 16.9278Z" fill="white"/>
<path d="M17.5618 20.7226H5.10144V21.4129H17.5618C17.9225 21.4129 18.2176 21.1022 18.2176 20.7226V20.0322C18.2176 20.4119 17.9225 20.7226 17.5618 20.7226Z" fill="#CAD1D8"/>
</g>
</g>
<defs>
<clipPath id="clip0_2031_4896">
<rect width="20.7097" height="27.613" fill="white" transform="translate(0.953003 0.0126953)"/>
</clipPath>
<clipPath id="clip1_2031_4896">
<rect width="20.7097" height="20.7097" fill="white" transform="translate(0.953003 3.46484)"/>
</clipPath>
</defs>
</svg>
