<svg width="24" height="24" viewBox="0 0 24 24" fill="none" xmlns="http://www.w3.org/2000/svg">
<path fill-rule="evenodd" clip-rule="evenodd" d="M6.46358 20.038C5.84959 20.038 5.28678 19.714 4.98831 19.1853L2.97581 15.689C2.66882 15.1603 2.67735 14.5122 2.98434 13.9835L8.3908 4.67991C8.69779 4.15972 9.26061 3.83568 9.86607 3.83568H11.4048H11.8615H13.8657C14.4711 3.83568 15.0339 4.15972 15.3409 4.67991L20.7474 13.9835C21.0544 14.5122 21.0629 15.1603 20.7559 15.689L18.7434 19.1853C18.445 19.714 17.8821 20.038 17.2682 20.038H11.8702L11.8615 20.0061V20.038H6.46358ZM11.4048 18.3325H11.8615H17.2682L19.2721 14.8447L13.8657 5.54119H11.8702L11.8615 5.50924V5.54119H9.86607L4.4596 14.8447L6.46358 18.3325H11.4048ZM7.81946 16.2006L7.19695 15.1176L11.1026 8.31264H11.4048H11.8615H12.6292L16.5348 15.1176L15.9123 16.2006H11.8615H11.4048H7.81946ZM11.4048 14.4951H11.8615H14.2068L11.8702 10.3934L11.8615 10.3544V10.3934L9.52497 14.4951H11.4048Z" fill="black" fill-opacity="0.54"/>
</svg>
