<svg width="23" height="24" viewBox="0 0 23 24" fill="none" xmlns="http://www.w3.org/2000/svg">
<path fill-rule="evenodd" clip-rule="evenodd" d="M12.6002 4.46658C12.3278 4.1941 11.886 4.1941 11.6135 4.46658L6.96214 9.11796C6.68967 9.39044 6.68967 9.8322 6.96214 10.1047C7.23461 10.3771 7.67638 10.3771 7.94885 10.1047L12.1069 5.94664L13.2865 7.12631L11.2169 9.22215L14.4147 12.42L18.8367 7.94205C19.1692 7.60948 19.1692 7.07224 18.8367 6.73967L16.8412 4.74422C16.5086 4.41165 15.9714 4.41165 15.6388 4.74422L14.267 6.13339L12.6002 4.46658ZM3.73438 19.8465V16.6487L10.3045 10.1346L13.5023 13.3324L6.93221 19.8465H3.73438Z" fill="black" fill-opacity="0.54"/>
</svg>
