<svg width="44" height="44" viewBox="0 0 44 44" fill="none" xmlns="http://www.w3.org/2000/svg">
<g clip-path="url(#clip0_4770_1046)">
<g opacity="0.948">
<path fill-rule="evenodd" clip-rule="evenodd" d="M7.94922 -0.0429688C8.29297 -0.0429688 8.63672 -0.0429688 8.98047 -0.0429688C9.32241 0.112991 9.56588 0.370804 9.71094 0.730469C9.75391 1.33135 9.76817 1.93291 9.75391 2.53516C11.3008 2.53516 12.8477 2.53516 14.3945 2.53516C14.3803 1.93291 14.3945 1.33135 14.4375 0.730469C14.5826 0.370804 14.826 0.112991 15.168 -0.0429688C15.5117 -0.0429688 15.8555 -0.0429688 16.1992 -0.0429688C16.5412 0.112991 16.7846 0.370804 16.9297 0.730469C16.9727 1.33135 16.9869 1.93291 16.9727 2.53516C18.5195 2.53516 20.0664 2.53516 21.6133 2.53516C21.599 1.93291 21.6133 1.33135 21.6562 0.730469C21.8013 0.370804 22.0448 0.112991 22.3867 -0.0429688C22.7305 -0.0429688 23.0742 -0.0429688 23.418 -0.0429688C23.7599 0.112991 24.0034 0.370804 24.1484 0.730469C24.1914 1.33135 24.2057 1.93291 24.1914 2.53516C25.7383 2.53516 27.2852 2.53516 28.832 2.53516C28.8178 1.93291 28.832 1.33135 28.875 0.730469C29.0201 0.370804 29.2635 0.112991 29.6055 -0.0429688C29.9492 -0.0429688 30.293 -0.0429688 30.6367 -0.0429688C30.9787 0.112991 31.2221 0.370804 31.3672 0.730469C31.4102 1.33135 31.4244 1.93291 31.4102 2.53516C32.5563 2.52084 33.7022 2.53516 34.8477 2.57812C36.8386 3.07942 38.0847 4.32552 38.5859 6.31641C38.6003 12.189 38.6433 18.0614 38.7148 23.9336C41.6665 25.769 43.414 28.4044 43.957 31.8398C43.957 32.7565 43.957 33.6731 43.957 34.5898C43.3682 38.1722 41.5063 40.8793 38.3711 42.7109C37.1702 43.3398 35.9098 43.7552 34.5898 43.957C33.6731 43.957 32.7565 43.957 31.8398 43.957C27.6358 43.234 24.7139 40.8995 23.0742 36.9531C16.3711 36.9245 9.66797 36.8958 2.96484 36.8672C1.40235 36.4361 0.399751 35.4478 -0.0429688 33.9023C-0.0429688 24.707 -0.0429688 15.5117 -0.0429688 6.31641C0.485728 4.34114 1.74615 3.09505 3.73828 2.57812C4.88376 2.53516 6.02959 2.52084 7.17578 2.53516C7.16149 1.93291 7.17582 1.33135 7.21875 0.730469C7.3638 0.370804 7.60729 0.112991 7.94922 -0.0429688ZM4.68359 5.11328C5.51433 5.11328 6.34505 5.11328 7.17578 5.11328C7.16149 5.71552 7.17582 6.31709 7.21875 6.91797C7.66147 7.68923 8.30601 7.90408 9.15234 7.5625C9.36719 7.46224 9.52471 7.30469 9.625 7.08984C9.74806 6.44065 9.79103 5.78181 9.75391 5.11328C11.3008 5.11328 12.8477 5.11328 14.3945 5.11328C14.3803 5.71552 14.3945 6.31709 14.4375 6.91797C14.8802 7.68923 15.5248 7.90408 16.3711 7.5625C16.5859 7.46224 16.7435 7.30469 16.8438 7.08984C16.9668 6.44065 17.0098 5.78181 16.9727 5.11328C18.5195 5.11328 20.0664 5.11328 21.6133 5.11328C21.599 5.71552 21.6133 6.31709 21.6562 6.91797C22.099 7.68923 22.7435 7.90408 23.5898 7.5625C23.8047 7.46224 23.9622 7.30469 24.0625 7.08984C24.1856 6.44065 24.2285 5.78181 24.1914 5.11328C25.7383 5.11328 27.2852 5.11328 28.832 5.11328C28.8178 5.71552 28.832 6.31709 28.875 6.91797C29.3178 7.68923 29.9623 7.90408 30.8086 7.5625C31.0234 7.46224 31.181 7.30469 31.2812 7.08984C31.4043 6.44065 31.4473 5.78181 31.4102 5.11328C32.4451 5.08426 33.4764 5.12723 34.5039 5.24219C35.4536 5.57998 35.9549 6.25316 36.0078 7.26172C36.0508 8.55046 36.0651 9.8395 36.0508 11.1289C24.8789 11.1289 13.707 11.1289 2.53516 11.1289C2.50117 9.63609 2.54414 8.14648 2.66406 6.66016C3.02086 5.71702 3.69404 5.20139 4.68359 5.11328ZM2.53516 13.707C13.707 13.707 24.8789 13.707 36.0508 13.707C36.0651 16.7436 36.0508 19.7801 36.0078 22.8164C31.2654 21.7657 27.3983 23.1407 24.4062 26.9414C22.8775 29.1658 22.233 31.6294 22.4727 34.332C16.2565 34.3464 10.0403 34.332 3.82422 34.2891C3.06511 34.2175 2.64974 33.8021 2.57812 33.043C2.53516 26.5977 2.52083 20.1524 2.53516 13.707ZM33.1289 25.0508C36.6034 25.2196 39.1099 26.8524 40.6484 29.9492C42.0759 33.9375 41.1449 37.2461 37.8555 39.875C34.7617 41.8802 31.668 41.8802 28.5742 39.875C25.4289 37.3993 24.4406 34.2339 25.6094 30.3789C27.0356 27.0762 29.542 25.3002 33.1289 25.0508Z" fill="#1C0D0D"/>
<path fill-rule="evenodd" clip-rule="evenodd" d="M14.0508 16.8867C14.9965 16.8724 15.9418 16.8867 16.8867 16.9297C17.6959 17.2445 17.9967 17.8317 17.7891 18.6914C17.6235 19.1149 17.3227 19.387 16.8867 19.5078C15.9414 19.5651 14.9961 19.5651 14.0508 19.5078C13.2416 19.193 12.9408 18.6058 13.1484 17.7461C13.3294 17.3213 13.6302 17.0349 14.0508 16.8867Z" fill="#1C0D0D"/>
<path fill-rule="evenodd" clip-rule="evenodd" d="M21.6992 16.8867C22.645 16.8724 23.5903 16.8867 24.5352 16.9297C25.3443 17.2445 25.6451 17.8317 25.4375 18.6914C25.2719 19.1149 24.9711 19.387 24.5352 19.5078C23.5898 19.5651 22.6445 19.5651 21.6992 19.5078C20.89 19.193 20.5893 18.6058 20.7969 17.7461C20.9779 17.3213 21.2786 17.0349 21.6992 16.8867Z" fill="#1C0D0D"/>
<path fill-rule="evenodd" clip-rule="evenodd" d="M29.3477 16.8867C30.2934 16.8724 31.2387 16.8867 32.1836 16.9297C32.9928 17.2445 33.2936 17.8317 33.0859 18.6914C32.9203 19.1149 32.6196 19.387 32.1836 19.5078C31.2383 19.5651 30.293 19.5651 29.3477 19.5078C28.5385 19.193 28.2377 18.6058 28.4453 17.7461C28.6263 17.3213 28.9271 17.0349 29.3477 16.8867Z" fill="#1C0D0D"/>
<path fill-rule="evenodd" clip-rule="evenodd" d="M6.23047 22.7305C7.29075 22.7161 8.35065 22.7305 9.41016 22.7734C10.1333 23.1471 10.3768 23.7343 10.1406 24.5352C10.0117 24.8933 9.76826 25.1367 9.41016 25.2656C8.35026 25.3229 7.29036 25.3229 6.23047 25.2656C5.45921 24.8229 5.24436 24.1783 5.58594 23.332C5.75908 23.0818 5.97392 22.8813 6.23047 22.7305Z" fill="#1C0D0D"/>
<path fill-rule="evenodd" clip-rule="evenodd" d="M13.8789 22.7305C14.9392 22.7161 15.9991 22.7305 17.0586 22.7734C17.7818 23.1471 18.0252 23.7343 17.7891 24.5352C17.6602 24.8933 17.4167 25.1367 17.0586 25.2656C15.9987 25.3229 14.9388 25.3229 13.8789 25.2656C13.1076 24.8229 12.8928 24.1783 13.2344 23.332C13.4075 23.0818 13.6224 22.8813 13.8789 22.7305Z" fill="#1C0D0D"/>
<path fill-rule="evenodd" clip-rule="evenodd" d="M21.5273 22.7305C22.5876 22.7161 23.6475 22.7305 24.707 22.7734C25.4302 23.1471 25.6737 23.7343 25.4375 24.5352C25.3086 24.8933 25.0651 25.1367 24.707 25.2656C23.6472 25.3229 22.5872 25.3229 21.5273 25.2656C20.7561 24.8229 20.5412 24.1783 20.8828 23.332C21.056 23.0818 21.2708 22.8813 21.5273 22.7305Z" fill="#1C0D0D"/>
<path fill-rule="evenodd" clip-rule="evenodd" d="M32.6992 27.6289C33.5003 27.4356 34.0875 27.6934 34.4609 28.4023C34.5039 29.5765 34.5183 30.7509 34.5039 31.9258C35.6788 31.9114 36.8532 31.9258 38.0273 31.9688C38.7505 32.3424 38.994 32.9296 38.7578 33.7305C38.6289 34.0886 38.3854 34.332 38.0273 34.4609C36.2513 34.5183 34.4753 34.5183 32.6992 34.4609C32.3411 34.332 32.0977 34.0886 31.9688 33.7305C31.9114 31.9544 31.9114 30.1784 31.9688 28.4023C32.1138 28.0427 32.3573 27.7849 32.6992 27.6289Z" fill="#1C0D0D"/>
<path fill-rule="evenodd" clip-rule="evenodd" d="M6.40234 28.4883C7.34809 28.4739 8.2934 28.4883 9.23828 28.5312C10.0475 28.846 10.3483 29.4333 10.1406 30.293C9.97502 30.7165 9.67424 30.9885 9.23828 31.1094C8.29297 31.1667 7.34766 31.1667 6.40234 31.1094C5.59316 30.7946 5.29238 30.2074 5.5 29.3477C5.68098 28.9229 5.98176 28.6364 6.40234 28.4883Z" fill="#1C0D0D"/>
<path fill-rule="evenodd" clip-rule="evenodd" d="M14.0508 28.4883C14.9965 28.4739 15.9418 28.4883 16.8867 28.5312C17.6959 28.846 17.9967 29.4333 17.7891 30.293C17.6235 30.7165 17.3227 30.9885 16.8867 31.1094C15.9414 31.1667 14.9961 31.1667 14.0508 31.1094C13.2416 30.7946 12.9408 30.2074 13.1484 29.3477C13.3294 28.9229 13.6302 28.6364 14.0508 28.4883Z" fill="#1C0D0D"/>
</g>
</g>
<defs>
<clipPath id="clip0_4770_1046">
<rect width="44" height="44" fill="white"/>
</clipPath>
</defs>
</svg>
