<svg width="19" height="18" viewBox="0 0 19 18" fill="none" xmlns="http://www.w3.org/2000/svg">
<g clip-path="url(#clip0_6429_9405)">
<path d="M15.1532 4.152L12.5402 1.5375C11.5479 0.546 10.2294 0 8.82766 0H5.44141C3.37366 0 1.69141 1.68225 1.69141 3.75V8.25C1.69141 8.664 2.02666 9 2.44141 9C2.85616 9 3.19141 8.664 3.19141 8.25V3.75C3.19141 2.5095 4.20091 1.5 5.44141 1.5H8.82766C8.94991 1.5 9.07141 1.506 9.19141 1.51725V5.25C9.19141 6.4905 10.2009 7.5 11.4414 7.5H15.1742C15.1854 7.62 15.1914 7.7415 15.1914 7.86375V14.25C15.1914 15.4905 14.1819 16.5 12.9414 16.5H5.44141C4.20091 16.5 3.19141 15.4905 3.19141 14.25C3.19141 13.836 2.85616 13.5 2.44141 13.5C2.02666 13.5 1.69141 13.836 1.69141 14.25C1.69141 16.3177 3.37366 18 5.44141 18H12.9414C15.0092 18 16.6914 16.3177 16.6914 14.25V7.86375C16.6914 6.4605 16.1447 5.1435 15.1532 4.152ZM11.4414 6C11.0274 6 10.6914 5.66325 10.6914 5.25V1.99425C10.9764 2.15775 11.2412 2.3595 11.4797 2.598L14.0927 5.2125C14.3312 5.45025 14.5329 5.715 14.6964 6H11.4407H11.4414ZM7.98991 12H0.941406C0.526656 12 0.191406 11.664 0.191406 11.25C0.191406 10.836 0.526656 10.5 0.941406 10.5H7.98991L7.02016 9.53025C6.72691 9.237 6.72691 8.76225 7.02016 8.46975C7.31341 8.1765 7.78741 8.1765 8.08066 8.46975L9.29041 9.68025C10.1559 10.5457 10.1559 11.9543 9.29041 12.8205L8.08066 14.031C7.93441 14.1772 7.74241 14.2507 7.55041 14.2507C7.35841 14.2507 7.16641 14.1772 7.02016 14.031C6.72691 13.7385 6.72691 13.2638 7.02016 12.9705L7.98991 12Z" fill="white"/>
</g>
<defs>
<clipPath id="clip0_6429_9405">
<rect width="18" height="18" fill="white" transform="translate(0.191406)"/>
</clipPath>
</defs>
</svg>
