<svg width="23" height="24" viewBox="0 0 23 24" fill="none" xmlns="http://www.w3.org/2000/svg">
<path d="M15.4008 6.82055V16.6272C15.4008 18.5118 13.8744 20.0382 11.9898 20.0382C10.1052 20.0382 8.5788 18.5118 8.5788 16.6272V5.9678C8.5788 4.79099 9.53388 3.83591 10.7107 3.83591C11.8875 3.83591 12.8426 4.79099 12.8426 5.9678V14.9217C12.8426 15.3907 12.4588 15.7745 11.9898 15.7745C11.5208 15.7745 11.1371 15.3907 11.1371 14.9217V6.82055H9.85793V14.9217C9.85793 16.0985 10.813 17.0536 11.9898 17.0536C13.1666 17.0536 14.1217 16.0985 14.1217 14.9217V5.9678C14.1217 4.08321 12.5953 2.55678 10.7107 2.55678C8.8261 2.55678 7.29967 4.08321 7.29967 5.9678V16.6272C7.29967 19.2196 9.39744 21.3174 11.9898 21.3174C14.5822 21.3174 16.68 19.2196 16.68 16.6272V6.82055H15.4008Z" fill="black" fill-opacity="0.54"/>
</svg>
