<svg width="36" height="36" viewBox="0 0 36 36" fill="none" xmlns="http://www.w3.org/2000/svg">
<circle cx="18" cy="18" r="18" fill="white" fill-opacity="0.45"/>
<circle cx="18" cy="18" r="18" stroke="white"/>
<g clip-path="url(#clip0_3558_15655)">
<path d="M20 17.9398L22.3267 20.2576L25.4557 22L26 17.9544L25.4557 14L22.2668 15.5307L20 17.9398Z" fill="#00832D"/>
<path d="M8 20.7666V24.4685C8 25.3137 8.68611 26 9.53154 26H13.2334L14 23.2029L13.2334 20.7666L10.6937 20L8 20.7666Z" fill="#0066DA"/>
<path d="M13.2456 10L8 15.235L10.7001 16L13.2456 15.235L14 12.8311L13.2456 10Z" fill="#E94235"/>
<path d="M8 20H12V14H8V20Z" fill="#2684FC"/>
<path d="M26.9105 12.1461L24 14.4275V21.5731L26.9225 23.8634C27.36 24.1909 28 23.8925 28 23.3611V12.6383C28 12.101 27.3447 11.804 26.9104 12.1462" fill="#00AC47"/>
<path d="M19.1015 18V21.4438H12V26H22.5307C23.3418 26 24 25.4025 24 24.6666V21.7958L19.1015 18Z" fill="#00AC47"/>
<path d="M22.5306 10H12V14.5562H19.1015V18L24 14.3168V11.3334C24 10.5974 23.3417 10.0001 22.5306 10.0001" fill="#FFBA00"/>
</g>
<defs>
<clipPath id="clip0_3558_15655">
<rect width="20" height="16" fill="white" transform="translate(8 10)"/>
</clipPath>
</defs>
</svg>
