<svg width="18" height="18" viewBox="0 0 18 18" fill="none" xmlns="http://www.w3.org/2000/svg">
<g clip-path="url(#clip0_3575_1792)">
<path d="M14.6728 2H3.47275C2.34155 2 1.77595 2 1.42475 2.32045C1.07355 2.6409 1.07275 3.15735 1.07275 4.18947V4.72614C1.07275 5.53271 1.07275 5.93638 1.28075 6.27082C1.48875 6.60527 1.86715 6.81372 2.62635 7.22906L4.95675 8.50463C5.46555 8.78307 5.72075 8.9223 5.90315 9.0763C6.28235 9.39597 6.51595 9.77242 6.62155 10.2352C6.67275 10.4561 6.67275 10.7159 6.67275 11.2347V13.3113C6.67275 14.0184 6.67275 14.3722 6.87435 14.6476C7.07595 14.9237 7.43435 15.0598 8.14955 15.332C9.65275 15.9029 10.404 16.1884 10.9384 15.8633C11.4728 15.5381 11.4728 14.7961 11.4728 13.3106V11.2339C11.4728 10.7159 11.4728 10.4561 11.524 10.2344C11.6244 9.7811 11.8775 9.37329 12.2432 9.07552C12.4248 8.9223 12.68 8.78307 13.1888 8.50385L15.5192 7.22828C16.2776 6.81372 16.6576 6.60605 16.8648 6.2716C17.0728 5.93715 17.0728 5.53271 17.0728 4.72536V4.18869C17.0728 3.15735 17.0728 2.6409 16.7208 2.32045C16.3704 2 15.8048 2 14.6728 2Z" stroke="#1C0D0D" stroke-width="2"/>
</g>
<defs>
<clipPath id="clip0_3575_1792">
<rect width="18" height="18" fill="white"/>
</clipPath>
</defs>
</svg>
