<svg width="108" height="110" viewBox="0 0 108 110" fill="none" xmlns="http://www.w3.org/2000/svg">
<rect width="108" height="110" rx="10" fill="white" fill-opacity="0.7"/>
<g clip-path="url(#clip0_3554_9836)">
<mask id="mask0_3554_9836" style="mask-type:luminance" maskUnits="userSpaceOnUse" x="14" y="28" width="252" height="56">
<path d="M266 28H14V84H266V28Z" fill="white"/>
</mask>
<g mask="url(#mask0_3554_9836)">
<path d="M44 28L14 84H62L56.2373 73.1519H31.6441L44.4575 49.5329L45.2374 57.9501L48.0509 62.9751L49.7627 61.8684L49.7288 38.8481L44 28Z" fill="#BE202E"/>
<path d="M48 42L44 49.0342L44.868 57.1531L48 62V42Z" fill="#EF4137"/>
<path d="M31.6441 74L14 84H62L56.2373 74H31.6441Z" fill="#EF4352"/>
<mask id="mask1_3554_9836" style="mask-type:luminance" maskUnits="userSpaceOnUse" x="14" y="74" width="48" height="10">
<path d="M31.6441 74L14 84H62L56.2373 74H31.6441Z" fill="white"/>
</mask>
<g mask="url(#mask1_3554_9836)">
<path d="M16 74H14V84H16V74Z" fill="#F15B2A"/>
<path d="M18 74H16V84H18V74Z" fill="#F15A2B"/>
<path d="M18 74H16V84H18V74Z" fill="#ED5929"/>
<path d="M20 74H18V84H20V74Z" fill="#EC5829"/>
<path d="M20 74H18V84H20V74Z" fill="#E85627"/>
<path d="M22 74H20V84H22V74Z" fill="#E85628"/>
<path d="M22 74H20V84H22V74Z" fill="#E65429"/>
<path d="M22 74H20V84H22V74Z" fill="#E65329"/>
<path d="M22 74H20V84H22V74Z" fill="#E45229"/>
<path d="M24 74H22V84H24V74Z" fill="#E4512A"/>
<path d="M24 74H22V84H24V74Z" fill="#E3502A"/>
<path d="M26 74H24V84H26V74Z" fill="#E14E2B"/>
<path d="M28 74H26V84H28V74Z" fill="#DF4C2A"/>
<path d="M28 74H26V84H28V74Z" fill="#DF4B2B"/>
<path d="M30 74H28V84H30V74Z" fill="#DE4A2B"/>
<path d="M30 74H28V84H30V74Z" fill="#DE492C"/>
<path d="M32 74H30V84H32V74Z" fill="#DD472C"/>
<path d="M32 74H30V84H32V74Z" fill="#DC472C"/>
<path d="M34 74.1157V84H32V74L34 74.1157Z" fill="#DA462B"/>
<path d="M34 74L33.4 84H32V74H34Z" fill="#DA452B"/>
<path d="M34 74L33.375 84H32L32.6 74H34Z" fill="#D9442A"/>
<path d="M36 74L35.4 84H34L34.625 74H36Z" fill="#D7432B"/>
<path d="M36 74L35.375 84H34L34.6 74H36Z" fill="#D7412B"/>
<path d="M38 74L37.4 84H36L36.625 74H38Z" fill="#D6402B"/>
<path d="M38 74L37.375 84H36L36.6 74H38Z" fill="#D43F2B"/>
<path d="M40 74L39.4 84H38L38.625 74H40Z" fill="#D43F2B"/>
<path d="M40 74L39.375 84H38L38.6 74H40Z" fill="#D43E2B"/>
<path d="M42 74L41.4 84H40L40.625 74H42Z" fill="#D23D2B"/>
<path d="M42 74L41.375 84H40L40.6 74H42Z" fill="#D13C2B"/>
<path d="M44 74L43.4 84H42L42.625 74H44Z" fill="#D03B2C"/>
<path d="M44 74L43.4 84H42L42.6 74H44Z" fill="#CF382B"/>
<path d="M46 74L45.3924 84H44L44.6076 74H46Z" fill="#CF382B"/>
<path d="M46 74L45.4 84H44L44.6 74H46Z" fill="#CE372C"/>
<path d="M46 74L45.3924 84H44L44.6076 74H46Z" fill="#CD362C"/>
<path d="M48 74L47.4 84H46L46.6 74H48Z" fill="#CC332D"/>
<path d="M48 74L47.375 84H46L46.6 74H48Z" fill="#CB342D"/>
<path d="M50 74L49.4 84H48L48.625 74H50Z" fill="#C9312D"/>
<path d="M50 74L49.375 84H48L48.6 74H50Z" fill="#C9302D"/>
<path d="M52 74L51.4 84H50L50.625 74H52Z" fill="#C82F2E"/>
<path d="M52 74L51.375 84H50L50.6 74H52Z" fill="#C82F2E"/>
<path d="M54 74L53.4 84H52L52.625 74H54Z" fill="#C72D2E"/>
<path d="M56 74L55.375 84H54L54.6 74H56Z" fill="#C62C2E"/>
<path d="M56 74L55.4 84H54L54.625 74H56Z" fill="#C52B2E"/>
<path d="M58 74L57.375 84H56L56.6 74H58Z" fill="#C3292D"/>
<path d="M58 74L57.8984 84H56L56.8474 74H58Z" fill="#C3282D"/>
<path d="M58 74V84H56V74.1157L58 74Z" fill="#C1272D"/>
<path d="M58 74H56V84H58V74Z" fill="#C1272D"/>
<path d="M60 74H58V84H60V74Z" fill="#C0262D"/>
<path d="M60 74H58V84H60V74Z" fill="#C0242D"/>
<path d="M62 74H60V84H62V74Z" fill="#BE232E"/>
<path d="M62 74H60V84H62V74Z" fill="#BE202E"/>
</g>
<path d="M14 84L35.2361 42L16.4053 82.4199L50 84H14Z" fill="#A81F23"/>
<path d="M64 84L94 28H46L51.7626 38.8481H76.3728L63.5423 62.4671L62.7626 54.0499L59.9491 49.0432L58.2372 50.1316L58.2712 73.1519L64 84Z" fill="#BE202E"/>
<path d="M60 70L64 62.9596L63.132 54.8336L60 50V70Z" fill="#EF4137"/>
<path d="M76.3729 38L94 28H46L51.7627 38H76.3729Z" fill="#EF4352"/>
<mask id="mask2_3554_9836" style="mask-type:luminance" maskUnits="userSpaceOnUse" x="46" y="28" width="48" height="10">
<path d="M76.3729 38L94 28H46L51.7627 38H76.3729Z" fill="white"/>
</mask>
<g mask="url(#mask2_3554_9836)">
<path d="M94 28H92V38H94V28Z" fill="#F15B2A"/>
<path d="M94 28H92V38H94V28Z" fill="#F15A2B"/>
<path d="M92 28H90V38H92V28Z" fill="#ED5929"/>
<path d="M92 28H90V38H92V28Z" fill="#EC5829"/>
<path d="M90 28H88V38H90V28Z" fill="#E85627"/>
<path d="M90 28H88V38H90V28Z" fill="#E85628"/>
<path d="M90 28H88V38H90V28Z" fill="#E65429"/>
<path d="M90 28H88V38H90V28Z" fill="#E65329"/>
<path d="M88 28H86V38H88V28Z" fill="#E45229"/>
<path d="M88 28H86V38H88V28Z" fill="#E4512A"/>
<path d="M86 28H84V38H86V28Z" fill="#E3502A"/>
<path d="M84 28H82V38H84V28Z" fill="#E14E2B"/>
<path d="M84 28H82V38H84V28Z" fill="#DF4C2A"/>
<path d="M82 28H80V38H82V28Z" fill="#DF4B2B"/>
<path d="M82 28H80V38H82V28Z" fill="#DE4A2B"/>
<path d="M80 28H78V38H80V28Z" fill="#DE492C"/>
<path d="M80 28H78V38H80V28Z" fill="#DD472C"/>
<path d="M78 28H76V38H78V28Z" fill="#DC472C"/>
<path d="M76 37.868V28H78V38L76 37.868Z" fill="#DA462B"/>
<path d="M76 38L76.625 28H78V38H76Z" fill="#DA452B"/>
<path d="M74 38L74.6 28H76L75.375 38H74Z" fill="#D9442A"/>
<path d="M74 38L74.625 28H76L75.4 38H74Z" fill="#D7432B"/>
<path d="M72 38L72.6 28H74L73.375 38H72Z" fill="#D7412B"/>
<path d="M72 38L72.625 28H74L73.4 38H72Z" fill="#D6402B"/>
<path d="M70 38L70.6 28H72L71.375 38H70Z" fill="#D43F2B"/>
<path d="M68 38L68.6 28H70L69.4 38H68Z" fill="#D43F2B"/>
<path d="M68 38L68.6076 28H70L69.3924 38H68Z" fill="#D43E2B"/>
<path d="M66 38L66.6 28H68L67.4 38H66Z" fill="#D23D2B"/>
<path d="M66 38L66.6076 28H68L67.3924 38H66Z" fill="#D13C2B"/>
<path d="M64 38L64.6 28H66L65.4 38H64Z" fill="#D03B2C"/>
<path d="M64 38L64.625 28H66L65.4 38H64Z" fill="#CF382B"/>
<path d="M64 38L64.6 28H66L65.375 38H64Z" fill="#CF382B"/>
<path d="M64 38L64.625 28H66L65.4 38H64Z" fill="#CE372C"/>
<path d="M62 38L62.6 28H64L63.375 38H62Z" fill="#CD362C"/>
<path d="M62 38L62.625 28H64L63.4 38H62Z" fill="#CC332D"/>
<path d="M60 38L60.6 28H62L61.375 38H60Z" fill="#CB342D"/>
<path d="M58 38L58.625 28H60L59.4 38H58Z" fill="#C9312D"/>
<path d="M58 38L58.6 28H60L59.375 38H58Z" fill="#C9302D"/>
<path d="M56 38L56.625 28H58L57.4 38H56Z" fill="#C82F2E"/>
<path d="M56 38L56.6 28H58L57.375 38H56Z" fill="#C82F2E"/>
<path d="M54 38L54.6 28H56L55.4 38H54Z" fill="#C72D2E"/>
<path d="M54 38L54.6076 28H56L55.3924 38H54Z" fill="#C62C2E"/>
<path d="M52 38L52.6 28H54L53.4 38H52Z" fill="#C52B2E"/>
<path d="M52 38L52.625 28H54L53.4 38H52Z" fill="#C3292D"/>
<path d="M52 38L52.069 28H54L53.138 38H52Z" fill="#C3282D"/>
<path d="M52 38V28H53.9642L54 37.868L52 38Z" fill="#C1272D"/>
<path d="M52 28H50V38H52V28Z" fill="#C1272D"/>
<path d="M52 28H50V38H52V28Z" fill="#C0262D"/>
<path d="M50 28H48V38H50V28Z" fill="#C0242D"/>
<path d="M50 28H48V38H50V28Z" fill="#BE232E"/>
<path d="M48 28H46V38H48V28Z" fill="#BE202E"/>
</g>
<path d="M92 28L70.7798 70L89.5947 29.5795L56 28H92Z" fill="#A81F23"/>
</g>
</g>
<defs>
<clipPath id="clip0_3554_9836">
<rect width="82" height="56" fill="white" transform="translate(14 28)"/>
</clipPath>
</defs>
</svg>
