<svg width="17" height="16" viewBox="0 0 17 16" fill="none" xmlns="http://www.w3.org/2000/svg">
<rect x="0.5" width="16" height="16" rx="8" fill="#0A66C2"/>
<path d="M11.9094 4H5.09056C4.93393 4 4.78372 4.06222 4.67297 4.17297C4.56222 4.28372 4.5 4.43393 4.5 4.59056V11.4094C4.5 11.5661 4.56222 11.7163 4.67297 11.827C4.78372 11.9378 4.93393 12 5.09056 12H11.9094C12.0661 12 12.2163 11.9378 12.327 11.827C12.4378 11.7163 12.5 11.5661 12.5 11.4094V4.59056C12.5 4.43393 12.4378 4.28372 12.327 4.17297C12.2163 4.06222 12.0661 4 11.9094 4ZM6.88444 10.815H5.68167V6.99444H6.88444V10.815ZM6.28222 6.465C6.14579 6.46423 6.01264 6.42307 5.89958 6.3467C5.78652 6.27033 5.69861 6.16218 5.64696 6.0359C5.5953 5.90962 5.58222 5.77086 5.60934 5.63715C5.63647 5.50344 5.7026 5.38076 5.79939 5.28459C5.89617 5.18843 6.01927 5.12309 6.15316 5.09682C6.28704 5.07055 6.4257 5.08453 6.55165 5.137C6.6776 5.18946 6.78518 5.27806 6.86082 5.3916C6.93646 5.50515 6.97677 5.63856 6.97667 5.775C6.97795 5.86634 6.96084 5.95701 6.92634 6.0416C6.89184 6.12619 6.84066 6.20297 6.77586 6.26736C6.71105 6.33174 6.63395 6.38243 6.54914 6.41638C6.46433 6.45034 6.37356 6.46687 6.28222 6.465ZM11.3178 10.8183H10.1156V8.73111C10.1156 8.11556 9.85389 7.92556 9.51611 7.92556C9.15945 7.92556 8.80944 8.19444 8.80944 8.74667V10.8183H7.60667V6.99722H8.76333V7.52667H8.77889C8.895 7.29167 9.30167 6.89 9.92222 6.89C10.5933 6.89 11.3183 7.28833 11.3183 8.455L11.3178 10.8183Z" fill="white"/>
</svg>
