<svg width="20" height="20" viewBox="0 0 20 20" fill="none" xmlns="http://www.w3.org/2000/svg">
<path d="M11.437 17.4936C11.0516 17.8184 10.5364 18 10.0002 18C9.46394 18 8.94879 17.8184 8.56332 17.4936C5.03348 14.5008 0.303073 11.1575 2.60996 6.30373C3.85726 3.67933 6.85136 2 10.0002 2C13.149 2 16.1431 3.67933 17.3904 6.30373C19.6943 11.1514 14.9755 14.5111 11.437 17.4936Z" stroke="#7D7C86"/>
<path d="M13 9C13 10.6569 11.6569 12 10 12C8.34314 12 7 10.6569 7 9C7 7.34314 8.34314 6 10 6C11.6569 6 13 7.34314 13 9Z" stroke="#7D7C86"/>
</svg>
