<svg width="23" height="24" viewBox="0 0 23 24" fill="none" xmlns="http://www.w3.org/2000/svg">
<path d="M13.5396 13.813L16.0126 15.2627L15.3304 16.3712L12.2605 14.4952V10.2314H13.5396V13.813ZM19.9353 13.6424C19.9353 17.4031 16.8739 20.4645 13.1132 20.4645C11.3907 20.4645 9.82159 19.8164 8.61921 18.759H4.58568C3.60501 18.759 2.88017 18.0341 2.88017 17.0534V9.37866C2.88017 8.42357 3.63912 7.70726 4.58568 7.67315V7.24677C4.58568 5.12341 6.29972 3.40938 8.42308 3.40938C10.4185 3.40938 12.0388 4.93581 12.2264 6.88862C12.5163 6.84598 12.8148 6.8204 13.1132 6.8204C16.8739 6.8204 19.9353 9.88178 19.9353 13.6424ZM6.29119 7.67315H10.555V7.04211C10.4526 5.95911 9.53166 5.11489 8.42308 5.11489C7.24628 5.11489 6.29119 6.06997 6.29119 7.24677V7.67315ZM18.2298 13.6424C18.2298 10.8198 15.9358 8.5259 13.1132 8.5259C10.2906 8.5259 7.9967 10.8198 7.9967 13.6424C7.9967 16.465 10.2906 18.759 13.1132 18.759C15.9358 18.759 18.2298 16.465 18.2298 13.6424Z" fill="black" fill-opacity="0.54"/>
</svg>
