<svg width="16" height="17" viewBox="0 0 16 17" fill="none" xmlns="http://www.w3.org/2000/svg">
<path d="M10 11.8038C9.95067 13.0385 8.922 14.0865 7.544 14.0532C7.22333 14.0452 6.82667 13.9331 6.034 13.7098C4.12667 13.1718 2.47067 12.2672 2.07333 10.2412C2 9.86982 2 9.45048 2 8.61182V7.49582C2 6.65782 2 6.23849 2.07333 5.86582C2.47067 3.84049 4.12667 2.93582 6.034 2.39782C6.82733 2.17448 7.22333 2.06248 7.544 2.05448C8.922 2.02115 9.95067 3.06915 10 4.30382M14 8.05382H6.66667M14 8.05382C14 7.58715 12.6707 6.71515 12.3333 6.38715M14 8.05382C14 8.52048 12.6707 9.39248 12.3333 9.72048" stroke="#E51130" stroke-linecap="round" stroke-linejoin="round"/>
</svg>
