<svg width="17" height="16" viewBox="0 0 17 16" fill="none" xmlns="http://www.w3.org/2000/svg">
<path fill-rule="evenodd" clip-rule="evenodd" d="M4.30266 3.29419C3.84801 3.29419 3.41197 3.4925 3.09048 3.84551C2.76899 4.19851 2.58838 4.67729 2.58838 5.17651V10.8235C2.58838 11.3227 2.76899 11.8015 3.09048 12.1545C3.41197 12.5075 3.84801 12.7058 4.30266 12.7058H9.44552C9.90018 12.7058 10.3362 12.5075 10.6577 12.1545C10.9792 11.8015 11.1598 11.3227 11.1598 10.8235V9.85503L13.5949 11.5934C13.6919 11.6626 13.8041 11.7019 13.9197 11.707C14.0353 11.7121 14.1501 11.6828 14.2518 11.6223C14.3535 11.5618 14.4385 11.4722 14.4977 11.3631C14.557 11.254 14.5883 11.1293 14.5884 11.0023V4.99863C14.5885 4.87137 14.5573 4.74642 14.4981 4.63703C14.4389 4.52763 14.3538 4.43785 14.252 4.37718C14.1501 4.31652 14.0351 4.28723 13.9193 4.29242C13.8035 4.2976 13.6911 4.33707 13.5941 4.40664L11.1598 6.14779V5.17651C11.1598 4.67729 10.9792 4.19851 10.6577 3.84551C10.3362 3.4925 9.90018 3.29419 9.44552 3.29419H4.30266ZM11.1598 7.26966L13.7312 5.43251V10.5684L11.1598 8.73317V7.26966ZM10.3027 5.17651V10.8235C10.3027 11.0731 10.2124 11.3125 10.0516 11.489C9.89087 11.6655 9.67285 11.7647 9.44552 11.7647H4.30266C4.07534 11.7647 3.85732 11.6655 3.69657 11.489C3.53583 11.3125 3.44552 11.0731 3.44552 10.8235V5.17651C3.44552 4.9269 3.53583 4.68751 3.69657 4.51101C3.85732 4.33451 4.07534 4.23535 4.30266 4.23535H9.44552C9.67285 4.23535 9.89087 4.33451 10.0516 4.51101C10.2124 4.68751 10.3027 4.9269 10.3027 5.17651Z" fill="white"/>
</svg>
