<svg width="42" height="42" viewBox="0 0 42 42" fill="none" xmlns="http://www.w3.org/2000/svg">
<rect width="42" height="42" rx="21" fill="white" fill-opacity="0.3"/>
<rect width="42" height="42" rx="21" stroke="white"/>
<path d="M14.0714 17C14.809 15.7223 15.8857 14.6735 17.1823 13.9695C18.4789 13.2655 19.9449 12.9338 21.4183 13.011C22.8916 13.0882 24.3149 13.5713 25.5308 14.407C26.7467 15.2427 27.7079 16.3983 28.3079 17.7461" stroke="#1C0D0D" stroke-width="1.5" stroke-linecap="round"/>
<path d="M12.2314 14.5155L12.9609 17.675C13.0851 18.2132 13.622 18.5487 14.1602 18.4245L17.3197 17.6951" stroke="#1C0D0D" stroke-width="1.5" stroke-linecap="round"/>
<path d="M27.9278 25C27.1901 26.2777 26.1135 27.3266 24.8169 28.0306C23.5203 28.7345 22.0543 29.0663 20.5809 28.9891C19.1076 28.9118 17.6842 28.4287 16.4683 27.593C15.2524 26.7574 14.2913 25.6017 13.6912 24.2539" stroke="#1C0D0D" stroke-width="1.5" stroke-linecap="round"/>
<path d="M29.7677 27.4846L29.0383 24.325C28.9141 23.7869 28.3771 23.4514 27.839 23.5756L24.6795 24.305" stroke="#1C0D0D" stroke-width="1.5" stroke-linecap="round"/>
</svg>
