<svg width="13" height="13" viewBox="0 0 13 13" fill="none" xmlns="http://www.w3.org/2000/svg">
<path fill-rule="evenodd" clip-rule="evenodd" d="M6.77607 6.51981L8.72157 8.46531L8.29757 8.88981L6.17607 6.76831V3.76831H6.77607V6.51981ZM6.47607 11.7683C3.71457 11.7683 1.47607 9.52981 1.47607 6.76831C1.47607 4.00681 3.71457 1.76831 6.47607 1.76831C9.23757 1.76831 11.4761 4.00681 11.4761 6.76831C11.4761 9.52981 9.23757 11.7683 6.47607 11.7683ZM6.47607 11.1683C7.64303 11.1683 8.76218 10.7047 9.58734 9.87958C10.4125 9.05442 10.8761 7.93526 10.8761 6.76831C10.8761 5.60136 10.4125 4.4822 9.58734 3.65704C8.76218 2.83188 7.64303 2.36831 6.47607 2.36831C5.30912 2.36831 4.18996 2.83188 3.3648 3.65704C2.53964 4.4822 2.07607 5.60136 2.07607 6.76831C2.07607 7.93526 2.53964 9.05442 3.3648 9.87958C4.18996 10.7047 5.30912 11.1683 6.47607 11.1683Z" fill="#1C0D0D"/>
</svg>
