<svg width="35" height="35" viewBox="0 0 35 35" fill="none" xmlns="http://www.w3.org/2000/svg">
<rect x="1.37009" y="1.3563" width="32.491" height="32.491" rx="16.2455" fill="white" fill-opacity="0.3"/>
<rect x="1.37009" y="1.3563" width="32.491" height="32.491" rx="16.2455" stroke="white" stroke-width="0.8"/>
<g clip-path="url(#clip0_2031_4638)">
<path opacity="0.954" fill-rule="evenodd" clip-rule="evenodd" d="M17.141 8.58423C17.4222 8.58423 17.7035 8.58423 17.9847 8.58423C18.7147 8.72211 19.2187 9.13813 19.4965 9.83228C19.9652 9.84399 20.434 9.85571 20.9027 9.86743C21.0597 9.87843 21.171 9.9546 21.2367 10.0959C21.2543 10.377 21.2601 10.6582 21.2543 10.9397C21.8989 10.9338 22.5435 10.9397 23.1879 10.9573C24.0687 11.1702 24.5667 11.7268 24.682 12.6272C24.7055 16.7639 24.7055 20.9006 24.682 25.0374C24.637 25.6022 24.3734 26.03 23.891 26.3206C23.6861 26.4335 23.4752 26.5214 23.2582 26.5842C19.4848 26.5842 15.7113 26.5842 11.9379 26.5842C11.503 26.475 11.1338 26.2524 10.8304 25.9163C10.6413 25.6536 10.5359 25.3606 10.514 25.0374C10.4906 20.9006 10.4906 16.7639 10.514 12.6272C10.6293 11.7268 11.1274 11.1702 12.0082 10.9573C12.6526 10.9397 13.2971 10.9338 13.9418 10.9397C13.9359 10.6582 13.9418 10.377 13.9594 10.0959C14.025 9.9546 14.1364 9.87843 14.2933 9.86743C14.7508 9.86155 15.2079 9.84397 15.6644 9.8147C15.9462 9.14572 16.4384 8.73556 17.141 8.58423ZM17.4222 9.39282C18.1717 9.40738 18.6228 9.78238 18.7758 10.5178C18.8416 10.5955 18.9178 10.6599 19.0043 10.7112C19.4612 10.7288 19.9182 10.7346 20.3754 10.7288C20.3754 11.2913 20.3754 11.8538 20.3754 12.4163C18.5238 12.4163 16.6723 12.4163 14.8207 12.4163C14.8207 11.8538 14.8207 11.2913 14.8207 10.7288C15.2544 10.7346 15.688 10.7288 16.1215 10.7112C16.1683 10.6877 16.2152 10.6643 16.2621 10.6409C16.385 10.3895 16.5081 10.1376 16.6312 9.88501C16.845 9.63488 17.1086 9.47082 17.4222 9.39282ZM12.1488 11.8186C12.7465 11.8186 13.3441 11.8186 13.9418 11.8186C13.9359 12.2172 13.9418 12.6157 13.9594 13.0139C14.0004 13.1487 14.0883 13.2366 14.223 13.2776C15.3401 13.3182 16.4592 13.3358 17.5804 13.3303C18.7129 13.3357 19.8438 13.3181 20.973 13.2776C21.0991 13.2102 21.187 13.1106 21.2367 12.9788C21.2543 12.5922 21.2601 12.2055 21.2543 11.8186C21.852 11.8127 22.4497 11.8186 23.0472 11.8362C23.4284 11.9361 23.6686 12.1763 23.7679 12.5569C23.7914 16.7522 23.7914 20.9475 23.7679 25.1428C23.6313 25.4371 23.4028 25.6187 23.0824 25.6877C19.4261 25.7112 15.7699 25.7112 12.1136 25.6877C11.7933 25.6187 11.5647 25.4371 11.4281 25.1428C11.4047 20.9358 11.4047 16.7288 11.4281 12.5217C11.5492 12.1604 11.7894 11.926 12.1488 11.8186Z" fill="white"/>
<path opacity="0.943" fill-rule="evenodd" clip-rule="evenodd" d="M15.4692 14.5956C15.9745 14.5556 16.1679 14.7783 16.0493 15.2636C15.5863 15.7383 15.1117 16.2012 14.6255 16.6523C14.4715 16.7946 14.3075 16.9235 14.1333 17.039C13.9999 17.0684 13.871 17.0567 13.7466 17.0038C13.3751 16.6559 13.0294 16.2868 12.7095 15.8964C12.6271 15.4046 12.8322 15.2113 13.3247 15.3163C13.541 15.5386 13.7637 15.7553 13.9927 15.9667C14.4865 15.5079 14.9787 15.0509 15.4692 14.5956Z" fill="white"/>
<path opacity="0.965" fill-rule="evenodd" clip-rule="evenodd" d="M17.0161 15.6509C18.7739 15.645 20.5318 15.6509 22.2895 15.6685C22.5611 15.8385 22.6255 16.0671 22.4829 16.354C22.422 16.4284 22.3458 16.4812 22.2544 16.5122C20.52 16.5357 18.7856 16.5357 17.0512 16.5122C16.764 16.3771 16.6761 16.1603 16.7876 15.8618C16.8601 15.7833 16.9363 15.713 17.0161 15.6509Z" fill="white"/>
<path opacity="0.942" fill-rule="evenodd" clip-rule="evenodd" d="M15.5393 18.0061C16.0173 18.0208 16.1872 18.2552 16.0491 18.7092C15.4445 19.3022 14.8293 19.8823 14.2034 20.4495C14.0137 20.5292 13.8379 20.5057 13.6761 20.3792C13.3538 20.0335 13.0315 19.6877 12.7093 19.342C12.6057 18.9863 12.7347 18.7754 13.096 18.7092C13.206 18.7032 13.3056 18.7325 13.3948 18.7971C13.6014 18.9978 13.8006 19.2029 13.9925 19.4124C14.4445 18.9927 14.8898 18.565 15.3284 18.1292C15.3963 18.0779 15.4666 18.0369 15.5393 18.0061Z" fill="white"/>
<path opacity="0.934" fill-rule="evenodd" clip-rule="evenodd" d="M17.0862 19.061C18.7972 19.0552 20.5081 19.061 22.2191 19.0786C22.5443 19.2128 22.6322 19.4413 22.4827 19.7642C22.4004 19.8786 22.289 19.943 22.1487 19.9575C20.4847 19.981 18.8206 19.981 17.1566 19.9575C16.7627 19.8554 16.6514 19.6152 16.8226 19.2368C16.8989 19.1552 16.9867 19.0965 17.0862 19.061Z" fill="white"/>
<path opacity="0.943" fill-rule="evenodd" clip-rule="evenodd" d="M15.4692 21.4511C15.9745 21.4111 16.1679 21.6338 16.0493 22.1191C15.4476 22.6972 14.8442 23.2773 14.2388 23.8593C14.0737 23.9272 13.9097 23.9272 13.7466 23.8593C13.3751 23.5114 13.0294 23.1422 12.7095 22.7519C12.6271 22.2601 12.8322 22.0667 13.3247 22.1718C13.542 22.395 13.7646 22.6118 13.9927 22.8222C14.4865 22.3634 14.9787 21.9064 15.4692 21.4511Z" fill="white"/>
<path opacity="0.967" fill-rule="evenodd" clip-rule="evenodd" d="M17.0161 22.5064C18.7739 22.5005 20.5318 22.5064 22.2895 22.5239C22.5611 22.694 22.6255 22.9225 22.4829 23.2095C22.422 23.2839 22.3458 23.3366 22.2544 23.3677C20.52 23.3911 18.7856 23.3911 17.0512 23.3677C16.764 23.2326 16.6761 23.0158 16.7876 22.7173C16.8601 22.6388 16.9363 22.5684 17.0161 22.5064Z" fill="white"/>
</g>
<defs>
<clipPath id="clip0_2031_4638">
<rect width="18" height="18" fill="white" transform="translate(8.6156 8.60181)"/>
</clipPath>
</defs>
</svg>
