<svg width="13" height="13" viewBox="0 0 13 13" fill="none" xmlns="http://www.w3.org/2000/svg">
<g clip-path="url(#clip0_2113_4632)">
<path d="M4.07676 7.39947C3.95276 7.39947 3.84476 7.35347 3.75276 7.26147C3.66076 7.16947 3.61476 7.06147 3.61476 6.93747C3.61476 6.81347 3.66076 6.70567 3.75276 6.61407C3.84476 6.52247 3.95276 6.47647 4.07676 6.47607C4.20076 6.47567 4.30876 6.52167 4.40076 6.61407C4.49276 6.70647 4.53876 6.81447 4.53876 6.93807C4.53876 7.06167 4.49276 7.16947 4.40076 7.26147C4.30876 7.35347 4.20076 7.39947 4.07676 7.39947ZM6.47676 7.39947C6.35276 7.39947 6.24476 7.35347 6.15276 7.26147C6.06076 7.16947 6.01476 7.06147 6.01476 6.93747C6.01476 6.81347 6.06076 6.70567 6.15276 6.61407C6.24476 6.52247 6.35276 6.47647 6.47676 6.47607C6.60076 6.47567 6.70876 6.52167 6.80076 6.61407C6.89276 6.70647 6.93876 6.81447 6.93876 6.93807C6.93876 7.06167 6.89276 7.16947 6.80076 7.26147C6.70876 7.35347 6.60076 7.39947 6.47676 7.39947ZM8.87676 7.39947C8.75276 7.39947 8.64476 7.35347 8.55276 7.26147C8.46076 7.16947 8.41476 7.06147 8.41476 6.93747C8.41476 6.81347 8.46076 6.70567 8.55276 6.61407C8.64476 6.52247 8.75276 6.47647 8.87676 6.47607C9.00076 6.47567 9.10876 6.52167 9.20076 6.61407C9.29276 6.70647 9.33876 6.81447 9.33876 6.93807C9.33876 7.06167 9.29276 7.16947 9.20076 7.26147C9.10876 7.35347 9.00076 7.39947 8.87676 7.39947ZM2.64636 11.6685C2.36996 11.6685 2.13936 11.5761 1.95456 11.3913C1.76976 11.2065 1.67716 10.9759 1.67676 10.6995V3.03747C1.67676 2.76147 1.76936 2.53107 1.95456 2.34627C2.13976 2.16147 2.37036 2.06887 2.64636 2.06847H3.70776V0.730469H4.35396V2.06847H8.64636V0.730469H9.24636V2.06847H10.3078C10.5838 2.06847 10.8144 2.16107 10.9996 2.34627C11.1848 2.53147 11.2772 2.76207 11.2768 3.03807V10.6995C11.2768 10.9755 11.1844 11.2061 10.9996 11.3913C10.8148 11.5765 10.584 11.6689 10.3072 11.6685H2.64636ZM2.64636 11.0685H10.3078C10.3998 11.0685 10.4844 11.0301 10.5616 10.9533C10.6388 10.8765 10.6772 10.7917 10.6768 10.6989V5.43807H2.27676V10.6995C2.27676 10.7915 2.31516 10.8761 2.39196 10.9533C2.46876 11.0305 2.55336 11.0689 2.64576 11.0685M2.27676 4.83747H10.6768V3.03747C10.6768 2.94547 10.6384 2.86087 10.5616 2.78367C10.4848 2.70647 10.4 2.66807 10.3072 2.66847H2.64636C2.55396 2.66847 2.46916 2.70687 2.39196 2.78367C2.31476 2.86047 2.27636 2.94527 2.27676 3.03807V4.83747Z" fill="#1C0D0D"/>
</g>
<defs>
<clipPath id="clip0_2113_4632">
<rect width="12" height="12" fill="white" transform="translate(0.476562 0.268555)"/>
</clipPath>
</defs>
</svg>
