<svg width="22" height="28" viewBox="0 0 22 28" fill="none" xmlns="http://www.w3.org/2000/svg">
<g clip-path="url(#clip0_2031_4881)">
<g clip-path="url(#clip1_2031_4881)">
<path d="M6.15113 3.46484C5.42339 3.46484 4.828 4.04731 4.828 4.7592V22.8802C4.828 23.5921 5.42339 24.1746 6.15113 24.1746H19.3823C20.1101 24.1746 20.7055 23.5921 20.7055 22.8802V8.64228L15.413 3.46484H6.15113Z" fill="#E2E5E7"/>
<path d="M16.568 8.98744H20.71L15.1874 3.46484V7.60679C15.1874 8.36617 15.8087 8.98744 16.568 8.98744Z" fill="#B0B7BD"/>
<path d="M20.7043 13.1293L16.5624 8.9873H20.7043V13.1293Z" fill="#CAD1D8"/>
<path d="M17.9398 20.0897C17.9398 20.4377 17.6421 20.7225 17.2783 20.7225H2.72394C2.36008 20.7225 2.06238 20.4377 2.06238 20.0897V13.7617C2.06238 13.4137 2.36008 13.1289 2.72394 13.1289H17.2783C17.6421 13.1289 17.9398 13.4137 17.9398 13.7617V20.0897Z" fill="#F15642"/>
<path d="M4.82788 15.5401C4.82788 15.3775 4.95943 15.2002 5.17132 15.2002H6.33944C6.9972 15.2002 7.58918 15.6288 7.58918 16.4503C7.58918 17.2287 6.9972 17.6622 6.33944 17.6622H5.49514V18.3125C5.49514 18.5293 5.35346 18.6518 5.17132 18.6518C5.00435 18.6518 4.82788 18.5293 4.82788 18.3125V15.5401ZM5.49514 15.8203V17.047H6.33944C6.67844 17.047 6.9466 16.7557 6.9466 16.4503C6.9466 16.106 6.67844 15.8203 6.33944 15.8203H5.49514Z" fill="white"/>
<path d="M8.65453 18.6518C8.47595 18.6518 8.28113 18.562 8.28113 18.343V15.5096C8.28113 15.3306 8.47595 15.2002 8.65453 15.2002H9.89314C12.3649 15.2002 12.3108 18.6518 9.94184 18.6518H8.65453ZM8.99547 15.809V18.0436H9.89314C11.3536 18.0436 11.4186 15.809 9.89314 15.809H8.99547Z" fill="white"/>
<path d="M13.1559 15.8496V16.6425H14.5871C14.7893 16.6425 14.9914 16.8221 14.9914 16.9962C14.9914 17.1609 14.7893 17.2956 14.5871 17.2956H13.1559V18.343C13.1559 18.5177 13.0163 18.6518 12.8197 18.6518C12.5727 18.6518 12.4218 18.5177 12.4218 18.343V15.5096C12.4218 15.3306 12.5734 15.2002 12.8197 15.2002H14.79C15.0371 15.2002 15.1831 15.3306 15.1831 15.5096C15.1831 15.6693 15.0371 15.849 14.79 15.849H13.1559V15.8496Z" fill="white"/>
<path d="M17.2884 20.7226H4.828V21.4129H17.2884C17.6491 21.4129 17.9442 21.1022 17.9442 20.7226V20.0322C17.9442 20.4119 17.6491 20.7226 17.2884 20.7226Z" fill="#CAD1D8"/>
</g>
</g>
<defs>
<clipPath id="clip0_2031_4881">
<rect width="20.7097" height="27.613" fill="white" transform="translate(0.687378 0.0126953)"/>
</clipPath>
<clipPath id="clip1_2031_4881">
<rect width="20.7097" height="20.7097" fill="white" transform="translate(0.687378 3.46484)"/>
</clipPath>
</defs>
</svg>
