<svg width="17" height="17" viewBox="0 0 17 17" fill="none" xmlns="http://www.w3.org/2000/svg">
<path d="M14.7713 12.0532V14.0532C14.7721 14.2388 14.734 14.4226 14.6597 14.5927C14.5853 14.7629 14.4762 14.9156 14.3394 15.0411C14.2026 15.1666 14.041 15.2622 13.8652 15.3216C13.6893 15.3811 13.5029 15.4032 13.318 15.3865C11.2665 15.1636 9.29598 14.4626 7.56465 13.3398C5.95387 12.3163 4.58821 10.9506 3.56465 9.33984C2.43797 7.60065 1.73681 5.62051 1.51798 3.55984C1.50132 3.37549 1.52323 3.18968 1.58232 3.01426C1.6414 2.83884 1.73636 2.67764 1.86116 2.54092C1.98596 2.40421 2.13785 2.29498 2.30718 2.22019C2.4765 2.1454 2.65954 2.10668 2.84465 2.10651H4.84465C5.16819 2.10333 5.48185 2.2179 5.72716 2.42887C5.97247 2.63983 6.1327 2.93281 6.17798 3.25318C6.2624 3.89322 6.41895 4.52166 6.64465 5.12651C6.73435 5.36513 6.75376 5.62445 6.70059 5.87376C6.64742 6.12307 6.52389 6.35192 6.34465 6.53318L5.49798 7.37984C6.44702 9.04887 7.82895 10.4308 9.49798 11.3798L10.3447 10.5332C10.5259 10.3539 10.7548 10.2304 11.0041 10.1772C11.2534 10.1241 11.5127 10.1435 11.7513 10.2332C12.3562 10.4589 12.9846 10.6154 13.6247 10.6998C13.9485 10.7455 14.2443 10.9086 14.4557 11.1582C14.6671 11.4077 14.7794 11.7262 14.7713 12.0532Z" stroke="#1C0D0D" stroke-linecap="round" stroke-linejoin="round"/>
</svg>
