<svg width="53" height="64" viewBox="0 0 53 64" fill="none" xmlns="http://www.w3.org/2000/svg">
<path opacity="0.1" d="M45.3537 18.3318L43.4148 25.1734H7.10156L9.04048 18.3318H45.3537ZM27.6818 61.4312L7.84943 37.3609L7.79403 31.9596H17.6271C20.0831 31.9596 22.1605 31.581 23.8594 30.8239C25.5582 30.0668 26.8509 28.9681 27.7372 27.5278C28.6236 26.069 29.0668 24.2962 29.0668 22.2096C29.0668 19.1073 28.1435 16.6421 26.2969 14.814C24.4503 12.9859 21.5604 12.0718 17.6271 12.0718H7.10156L9.12358 4.70392H17.6271C22.2067 4.70392 25.983 5.43332 28.956 6.89213C31.929 8.35094 34.1449 10.373 35.6037 12.9582C37.0625 15.5434 37.7919 18.5257 37.7919 21.9049C37.7919 24.9149 37.1918 27.6386 35.9915 30.0761C34.7912 32.5136 32.88 34.4987 30.2578 36.0313C27.6357 37.564 24.1918 38.4596 19.9261 38.7181L19.6768 38.7735L37.7919 60.9603V61.4312H27.6818ZM45.3814 4.70392L43.4148 11.6009L14.3864 11.4347L16.353 4.70392H45.3814Z" fill="#1C0D0D"/>
</svg>
