<svg width="28" height="40" viewBox="0 0 28 40" fill="none" xmlns="http://www.w3.org/2000/svg">
<g opacity="0.94">
<path fill-rule="evenodd" clip-rule="evenodd" d="M13.3456 0C15.5354 0.0516074 17.1527 1.01925 18.1975 2.90292C19.1306 2.93363 20.0637 2.96436 20.9967 2.99507C22.3008 3.40754 23.0472 4.28303 23.2361 5.62152C24.2097 5.66644 25.1738 5.77394 26.1286 5.94406C27.0142 6.29453 27.5895 6.92424 27.8548 7.83326C28.0095 17.7207 28.0406 27.6122 27.9481 37.5075C27.7421 38.7245 27.0423 39.5078 25.8487 39.8575C18.1997 40.009 10.5485 40.0397 2.89517 39.9496C1.51684 39.847 0.599353 39.1558 0.142615 37.8761C0.034566 32.8731 -0.0120875 27.8659 0.002655 22.8547C0.0182373 17.9704 0.0337262 13.0862 0.0493085 8.20189C0.279777 7.14578 0.886272 6.39314 1.86879 5.94406C2.82361 5.77394 3.78775 5.66644 4.76131 5.62152C4.95222 4.28122 5.69867 3.40574 7.00068 2.99507C7.90268 2.96436 8.80458 2.93363 9.70658 2.90292C10.3846 1.26425 11.5975 0.296613 13.3456 0ZM13.2522 2.21175C14.4688 2.14443 15.4174 2.60521 16.0981 3.59409C16.2666 4.00123 16.4532 4.40058 16.658 4.79211C16.7751 4.8576 16.8838 4.9344 16.9845 5.0225C18.1353 5.05322 19.2861 5.08394 20.4369 5.11466C20.6316 5.18767 20.8027 5.29518 20.9501 5.43721C21.1024 6.81098 21.1336 8.19332 21.0434 9.58423C20.9053 9.87572 20.672 10.0446 20.3436 10.0911C16.1137 10.1526 11.8837 10.1526 7.65383 10.0911C7.41739 10.0435 7.21529 9.93599 7.04733 9.76854C6.94134 9.04042 6.89468 8.30317 6.90737 7.5568C6.89468 6.81042 6.94134 6.07318 7.04733 5.34505C7.16061 5.20232 7.30057 5.0948 7.46721 5.0225C8.5869 4.99179 9.70658 4.96106 10.8263 4.93035C10.9506 4.86891 11.0751 4.80748 11.1995 4.74604C11.4462 4.12791 11.7417 3.52889 12.0859 2.94899C12.4199 2.60101 12.8087 2.35526 13.2522 2.21175ZM2.61525 7.83326C3.33064 7.83326 4.04593 7.83326 4.76131 7.83326C4.60493 9.02779 4.8382 10.1337 5.46111 11.1509C5.959 11.6735 6.5655 11.996 7.2806 12.1185C11.7593 12.18 16.2381 12.18 20.7168 12.1185C22.1826 11.838 23.0067 10.9625 23.1894 9.49207C23.236 8.93997 23.2516 8.38703 23.2361 7.83326C23.9211 7.81797 24.6053 7.83326 25.2888 7.87934C25.5221 7.98689 25.6931 8.15581 25.802 8.3862C25.8643 18.0319 25.8643 27.6775 25.802 37.3232C25.6931 37.5536 25.5221 37.7225 25.2888 37.8301C17.731 37.8915 10.1731 37.8915 2.61525 37.8301C2.44422 37.7225 2.30426 37.5843 2.19537 37.4154C2.04067 27.8351 2.00959 18.2509 2.10206 8.66267C2.13369 8.29128 2.30482 8.01481 2.61525 7.83326Z" fill="#1C0D0D"/>
<path fill-rule="evenodd" clip-rule="evenodd" d="M14.3719 6.0823C14.5055 6.13593 14.6298 6.2127 14.7452 6.31269C14.4665 6.44917 14.3576 6.64887 14.4186 6.9117C14.3875 6.88102 14.3563 6.85023 14.3253 6.81955C13.9074 7.12818 13.4564 7.17426 12.9723 6.95778C13.0829 6.83309 13.2074 6.72555 13.3456 6.63524C13.4344 6.49285 13.4655 6.33923 13.4389 6.17445C13.7694 6.2033 14.0803 6.17252 14.3719 6.0823Z" fill="#1C0D0D"/>
<path fill-rule="evenodd" clip-rule="evenodd" d="M16.1448 19.8135C16.4386 19.7869 16.7185 19.833 16.9845 19.9518C18.0576 21.073 19.1306 22.1942 20.2036 23.3155C20.3902 23.6841 20.3902 24.0527 20.2036 24.4214C19.0303 25.3957 17.9884 26.4862 17.0778 27.6929C16.5858 28.0195 16.1349 27.9734 15.7249 27.5547C15.5083 27.0861 15.5705 26.6561 15.9115 26.2645C16.2961 25.7308 16.716 25.2239 17.1711 24.7439C14.2476 24.7132 11.3239 24.6824 8.40028 24.6517C7.69712 24.175 7.66605 23.6528 8.30698 23.0851C11.355 23.0544 14.403 23.0236 17.4511 22.9929C16.8446 22.3325 16.2381 21.6721 15.6316 21.0116C15.4547 20.4526 15.6258 20.0532 16.1448 19.8135Z" fill="#1C0D0D"/>
</g>
</svg>
