<svg width="16" height="16" viewBox="0 0 16 16" fill="none" xmlns="http://www.w3.org/2000/svg">
<path fill-rule="evenodd" clip-rule="evenodd" d="M7.49998 5.6123C6.86485 5.6123 6.25574 5.86957 5.80663 6.32751C5.35753 6.78545 5.10522 7.40654 5.10522 8.05417C5.10522 8.70179 5.35753 9.32288 5.80663 9.78082C6.25574 10.2388 6.86485 10.496 7.49998 10.496C8.13511 10.496 8.74423 10.2388 9.19333 9.78082C9.64243 9.32288 9.89474 8.70179 9.89474 8.05417C9.89474 7.40654 9.64243 6.78545 9.19333 6.32751C8.74423 5.86957 8.13511 5.6123 7.49998 5.6123ZM6.06313 8.05417C6.06313 7.66559 6.21451 7.29293 6.48397 7.01817C6.75343 6.74341 7.1189 6.58905 7.49998 6.58905C7.88106 6.58905 8.24653 6.74341 8.51599 7.01817C8.78545 7.29293 8.93684 7.66559 8.93684 8.05417C8.93684 8.44274 8.78545 8.8154 8.51599 9.09016C8.24653 9.36492 7.88106 9.51928 7.49998 9.51928C7.1189 9.51928 6.75343 9.36492 6.48397 9.09016C6.21451 8.8154 6.06313 8.44274 6.06313 8.05417Z" fill="#1C0D0D"/>
<path fill-rule="evenodd" clip-rule="evenodd" d="M7.48403 1.05371C7.19986 1.05371 6.96294 1.05371 6.7688 1.06673C6.57033 1.07488 6.37458 1.1167 6.18959 1.19046C5.97646 1.28037 5.78278 1.41222 5.61963 1.57847C5.45647 1.74473 5.32704 1.94212 5.23871 2.15939C5.14611 2.38729 5.12121 2.62822 5.11099 2.88999C5.10985 2.9857 5.08494 3.07955 5.0386 3.16279C4.99226 3.24603 4.92598 3.31594 4.84597 3.36599C4.76348 3.41178 4.67095 3.4355 4.57703 3.43493C4.48311 3.43436 4.39086 3.40952 4.30891 3.36273C4.08156 3.24032 3.86444 3.14199 3.62433 3.10943C3.39567 3.07876 3.16333 3.09432 2.94057 3.15521C2.71781 3.2161 2.509 3.32114 2.32605 3.46432C2.17112 3.59095 2.03796 3.74302 1.93203 3.91427C1.82347 4.07966 1.70469 4.28869 1.56292 4.53939L1.54695 4.56804C1.40455 4.81873 1.2864 5.02776 1.20083 5.20618C1.11143 5.39241 1.04118 5.57604 1.01564 5.7792C0.954714 6.24998 1.07968 6.72617 1.36304 7.10301C1.51055 7.29901 1.70277 7.44162 1.9199 7.58097C2.00077 7.62986 2.06814 7.69888 2.11572 7.78156C2.1633 7.86424 2.18953 7.95788 2.19194 8.05371C2.18953 8.14954 2.1633 8.24318 2.11572 8.32586C2.06814 8.40855 2.00077 8.47756 1.9199 8.52646C1.70277 8.6658 1.51119 8.80841 1.36304 9.00441C1.22262 9.19096 1.11961 9.40388 1.05989 9.63102C1.00018 9.85816 0.984922 10.0951 1.015 10.3282C1.04118 10.5314 1.11079 10.715 1.20019 10.9012C1.2864 11.0797 1.40455 11.2887 1.54695 11.5394L1.56292 11.568C1.70469 11.8187 1.82347 12.0278 1.93203 12.1932C2.04506 12.3644 2.1664 12.5187 2.32605 12.6425C2.50895 12.7857 2.71774 12.8909 2.9405 12.9519C3.16326 13.0129 3.39563 13.0286 3.62433 12.998C3.86444 12.9654 4.08156 12.8678 4.30891 12.7447C4.39078 12.698 4.48291 12.6732 4.57671 12.6727C4.67051 12.6721 4.76292 12.6958 4.84533 12.7414C4.926 12.7909 4.99285 12.8606 5.03948 12.9439C5.08611 13.0273 5.11096 13.1215 5.11163 13.2174C5.12121 13.4792 5.14611 13.7201 5.23935 13.948C5.32753 14.1654 5.45684 14.3628 5.61988 14.5292C5.78293 14.6956 5.97651 14.8276 6.18959 14.9176C6.37478 14.9958 6.56636 15.0264 6.7688 15.04C6.96294 15.0537 7.19986 15.0537 7.48403 15.0537H7.51596C7.80014 15.0537 8.03706 15.0537 8.2312 15.0407C8.43427 15.0264 8.62522 14.9958 8.81041 14.917C9.02354 14.827 9.21722 14.6952 9.38037 14.5289C9.54352 14.3627 9.67296 14.1653 9.76129 13.948C9.85389 13.7201 9.87879 13.4792 9.88901 13.2174C9.89004 13.1216 9.9149 13.0276 9.96125 12.9443C10.0076 12.8609 10.0739 12.7909 10.154 12.7408C10.2366 12.6951 10.3291 12.6715 10.4231 12.6722C10.517 12.6728 10.6092 12.6978 10.6911 12.7447C10.9184 12.8671 11.1356 12.9654 11.3757 12.9973C11.8374 13.0595 12.3044 12.932 12.674 12.6431C12.8336 12.5181 12.9549 12.3644 13.068 12.1932C13.1765 12.0278 13.2953 11.8187 13.4371 11.568L13.453 11.5394C13.5955 11.2887 13.7136 11.0797 13.7992 10.9012C13.8886 10.715 13.9588 10.5307 13.9844 10.3282C14.0453 9.85744 13.9203 9.38126 13.637 9.00441C13.4894 8.80841 13.2972 8.6658 13.0801 8.52646C12.9992 8.47756 12.9319 8.40855 12.8843 8.32586C12.8367 8.24318 12.8105 8.14954 12.8081 8.05371C12.8081 7.87269 12.9051 7.69297 13.0801 7.58097C13.2972 7.44162 13.4888 7.29901 13.637 7.10301C13.7774 6.91647 13.8804 6.70354 13.9401 6.4764C13.9998 6.24926 14.0151 6.01235 13.985 5.7792C13.9549 5.57903 13.8923 5.38537 13.7998 5.20618C13.6907 4.98985 13.5751 4.77703 13.453 4.56804L13.4371 4.53939C13.3204 4.32716 13.1973 4.11868 13.068 3.91427C12.962 3.74325 12.8288 3.59141 12.674 3.46497C12.491 3.32167 12.2823 3.21652 12.0595 3.15552C11.8367 3.09452 11.6044 3.07886 11.3757 3.10943C11.1356 3.14199 10.9184 3.23966 10.6911 3.36273C10.6092 3.40941 10.5171 3.43418 10.4233 3.43475C10.3295 3.43532 10.2371 3.41166 10.1547 3.36599C10.0744 3.3161 10.0079 3.24626 9.96132 3.16301C9.91475 3.07976 9.88965 2.98582 9.88837 2.88999C9.87879 2.62822 9.85389 2.38729 9.76065 2.15939C9.67247 1.94206 9.54316 1.74458 9.38012 1.57821C9.21707 1.41185 9.02348 1.27987 8.81041 1.1898C8.62522 1.11166 8.43364 1.08106 8.2312 1.06739C8.03706 1.05371 7.80014 1.05371 7.51596 1.05371H7.48403ZM6.55615 2.09232C6.60532 2.07148 6.68003 2.05259 6.83394 2.04152C6.99167 2.03046 7.19603 2.03046 7.5 2.03046C7.80397 2.03046 8.00833 2.03046 8.16606 2.04152C8.31996 2.05259 8.39468 2.07148 8.44385 2.09232C8.6399 2.17501 8.79508 2.33325 8.87619 2.53315C8.90173 2.59566 8.9228 2.69399 8.93111 2.92646C8.95026 3.44218 9.21145 3.93901 9.67508 4.21185C10.1387 4.48469 10.6911 4.46711 11.1388 4.22618C11.3406 4.11743 11.4344 4.08683 11.5008 4.07836C11.7107 4.05009 11.9229 4.10794 12.0909 4.2392C12.1331 4.27241 12.1867 4.32906 12.2729 4.45929C12.3617 4.59343 12.4639 4.7738 12.6158 5.04208C12.7678 5.31036 12.8694 5.49139 12.939 5.63594C13.0073 5.77725 13.0284 5.85278 13.0348 5.90683C13.0625 6.12078 13.0058 6.3372 12.877 6.5085C12.8362 6.56255 12.7634 6.63027 12.5705 6.75399C12.1414 7.02878 11.8502 7.50804 11.8502 8.05371C11.8502 8.59939 12.1414 9.07864 12.5705 9.35343C12.7634 9.47715 12.8362 9.54487 12.877 9.59892C13.006 9.77018 13.0622 9.98636 13.0348 10.2006C13.0284 10.2546 13.0067 10.3308 12.939 10.4715C12.8694 10.6167 12.7678 10.7971 12.6158 11.0653C12.4639 11.3336 12.361 11.514 12.2729 11.6481C12.1867 11.7784 12.1331 11.835 12.0909 11.8682C11.9229 11.9995 11.7107 12.0573 11.5008 12.0291C11.4344 12.0206 11.3412 11.99 11.1388 11.8812C10.6917 11.6403 10.1387 11.6221 9.67508 11.8949C9.21145 12.1678 8.95026 12.6652 8.93111 13.181C8.9228 13.4134 8.90173 13.5118 8.87619 13.5743C8.83607 13.6731 8.77724 13.7629 8.70305 13.8386C8.62887 13.9142 8.54079 13.9742 8.44385 14.0151C8.39468 14.0359 8.31996 14.0548 8.16606 14.0659C8.00833 14.077 7.80397 14.077 7.5 14.077C7.19603 14.077 6.99167 14.077 6.83394 14.0659C6.68003 14.0548 6.60532 14.0359 6.55615 14.0151C6.45921 13.9742 6.37113 13.9142 6.29695 13.8386C6.22276 13.7629 6.16393 13.6731 6.12381 13.5743C6.09827 13.5118 6.07719 13.4134 6.06889 13.181C6.04973 12.6652 5.78855 12.1684 5.32492 11.8956C4.8613 11.6227 4.30891 11.6403 3.86125 11.8812C3.65945 11.99 3.56557 12.0206 3.49916 12.0291C3.28934 12.0573 3.07709 11.9995 2.90909 11.8682C2.86694 11.835 2.8133 11.7784 2.72709 11.6481C2.60696 11.4575 2.49259 11.2631 2.38416 11.0653C2.23217 10.7971 2.13064 10.616 2.06103 10.4715C1.9927 10.3302 1.97162 10.2546 1.96524 10.2006C1.93751 9.98665 1.99425 9.77023 2.12297 9.59892C2.16384 9.54487 2.23664 9.47715 2.4295 9.35343C2.85864 9.07864 3.14984 8.59939 3.14984 8.05371C3.14984 7.50804 2.85864 7.02878 2.4295 6.75399C2.23664 6.63027 2.16384 6.56255 2.12297 6.5085C1.99425 6.3372 1.93751 6.12078 1.96524 5.90683C1.97162 5.85278 1.99334 5.77659 2.06103 5.63594C2.13064 5.49073 2.23217 5.31036 2.38416 5.04208C2.53615 4.7738 2.63896 4.59343 2.72709 4.45929C2.8133 4.32906 2.86694 4.27241 2.90909 4.2392C3.07709 4.10794 3.28934 4.05009 3.49916 4.07836C3.56557 4.08683 3.65881 4.11743 3.86125 4.22618C4.30827 4.46711 4.8613 4.48534 5.32492 4.21185C5.78855 3.93901 6.04973 3.44218 6.06889 2.92646C6.07719 2.69399 6.09827 2.59566 6.12381 2.53315C6.20492 2.33325 6.3601 2.17501 6.55615 2.09232Z" fill="#1C0D0D"/>
</svg>
