<svg width="23" height="24" viewBox="0 0 23 24" fill="none" xmlns="http://www.w3.org/2000/svg">
<path d="M11.0925 3.40938C6.38532 3.40938 2.57351 7.22972 2.57351 11.9369C2.57351 16.6441 6.38532 20.4645 11.0925 20.4645C15.8083 20.4645 19.6286 16.6441 19.6286 11.9369C19.6286 7.22972 15.8083 3.40938 11.0925 3.40938ZM11.1011 18.759C7.33188 18.759 4.27902 15.7061 4.27902 11.9369C4.27902 8.16775 7.33188 5.11489 11.1011 5.11489C14.8702 5.11489 17.9231 8.16775 17.9231 11.9369C17.9231 15.7061 14.8702 18.759 11.1011 18.759ZM14.0857 11.0842C14.7935 11.0842 15.3648 10.5128 15.3648 9.80504C15.3648 9.09725 14.7935 8.5259 14.0857 8.5259C13.3779 8.5259 12.8066 9.09725 12.8066 9.80504C12.8066 10.5128 13.3779 11.0842 14.0857 11.0842ZM8.11641 11.0842C8.8242 11.0842 9.39555 10.5128 9.39555 9.80504C9.39555 9.09725 8.8242 8.5259 8.11641 8.5259C7.40863 8.5259 6.83728 9.09725 6.83728 9.80504C6.83728 10.5128 7.40863 11.0842 8.11641 11.0842ZM11.1011 16.6271C13.088 16.6271 14.7764 15.3821 15.4586 13.6424H6.74348C7.42568 15.3821 9.11414 16.6271 11.1011 16.6271Z" fill="black" fill-opacity="0.54"/>
</svg>
