<svg width="17" height="17" viewBox="0 0 17 17" fill="none" xmlns="http://www.w3.org/2000/svg">
<path d="M8.10628 10.1052V8.77185M8.10628 10.1052V11.4385M8.10628 10.1052H12.1063C12.8427 10.1052 13.4396 9.50823 13.4396 8.77185M8.10628 10.1052H4.10628C3.3699 10.1052 2.77295 9.50823 2.77295 8.77185M13.4396 8.77185V12.7718C13.4396 13.5082 12.8427 14.1052 12.1063 14.1052H4.10628C3.3699 14.1052 2.77295 13.5082 2.77295 12.7718V8.77185M13.4396 8.77185V6.10518C13.4396 5.3688 12.8427 4.77185 12.1063 4.77185H4.10628C3.3699 4.77185 2.77295 5.3688 2.77295 6.10518V8.77185M10.1063 4.77185V4.10518C10.1063 3.3688 9.50933 2.77185 8.77295 2.77185H7.43962C6.70324 2.77185 6.10628 3.3688 6.10628 4.10518V4.77185" stroke="#1C0D0D" stroke-linecap="round" stroke-linejoin="round"/>
</svg>
