<svg width="27" height="27" viewBox="0 0 27 27" fill="none" xmlns="http://www.w3.org/2000/svg">
<g clip-path="url(#clip0_963_1901)">
<path d="M11.0161 5.795L11.737 7.79691C12.1325 8.89437 12.7653 9.89107 13.5902 10.716C14.415 11.5409 15.4117 12.1736 16.5092 12.5692L18.5111 13.29C18.5507 13.3045 18.5848 13.3308 18.6089 13.3653C18.633 13.3998 18.6459 13.4409 18.6459 13.483C18.6459 13.5251 18.633 13.5662 18.6089 13.6008C18.5848 13.6353 18.5507 13.6616 18.5111 13.676L16.5092 14.3969C15.4117 14.7925 14.415 15.4252 13.5902 16.2501C12.7653 17.075 12.1325 18.0717 11.737 19.1692L11.0161 21.1711C11.0016 21.2106 10.9753 21.2447 10.9408 21.2688C10.9063 21.293 10.8652 21.3059 10.8231 21.3059C10.781 21.3059 10.7399 21.293 10.7054 21.2688C10.6709 21.2447 10.6446 21.2106 10.6301 21.1711L9.90921 19.1692C9.51366 18.0717 8.8809 17.075 8.05601 16.2501C7.23112 15.4252 6.23442 14.7925 5.13695 14.3969L3.13504 13.676C3.09551 13.6616 3.06139 13.6353 3.03728 13.6008C3.01317 13.5662 3.00024 13.5251 3.00024 13.483C3.00024 13.4409 3.01317 13.3998 3.03728 13.3653C3.06139 13.3308 3.09551 13.3045 3.13504 13.29L5.13695 12.5692C6.23442 12.1736 7.23112 11.5409 8.05601 10.716C8.8809 9.89107 9.51366 8.89437 9.90921 7.79691L10.6301 5.795C10.6442 5.75507 10.6703 5.72049 10.7049 5.69604C10.7394 5.67158 10.7807 5.65845 10.8231 5.65845C10.8654 5.65845 10.9067 5.67158 10.9413 5.69604C10.9759 5.72049 11.002 5.75507 11.0161 5.795Z" fill="url(#paint0_linear_963_1901)"/>
<g filter="url(#filter0_b_963_1901)">
<path d="M8.2223 4.15721L9.05164 6.4601C9.5067 7.72257 10.2347 8.86912 11.1837 9.81803C12.1327 10.7669 13.2794 11.4948 14.542 11.9499L16.8452 12.7791C16.8906 12.7958 16.9299 12.826 16.9576 12.8657C16.9854 12.9054 17.0002 12.9527 17.0002 13.0011C17.0002 13.0496 16.9854 13.0968 16.9576 13.1365C16.9299 13.1762 16.8906 13.2065 16.8452 13.2232L14.542 14.0524C13.2794 14.5074 12.1327 15.2353 11.1837 16.1842C10.2347 17.1331 9.5067 18.2797 9.05164 19.5422L8.2223 21.8451C8.20562 21.8905 8.17538 21.9298 8.13567 21.9575C8.09596 21.9853 8.04868 22.0001 8.00025 22.0001C7.95181 22.0001 7.90453 21.9853 7.86482 21.9575C7.82511 21.9298 7.79487 21.8905 7.77819 21.8451L6.94885 19.5422C6.49379 18.2797 5.7658 17.1331 4.81678 16.1842C3.86777 15.2353 2.72109 14.5074 1.45848 14.0524L-0.844672 13.2232C-0.89015 13.2065 -0.929411 13.1762 -0.957147 13.1365C-0.984882 13.0968 -0.999756 13.0496 -0.999756 13.0011C-0.999756 12.9527 -0.984882 12.9054 -0.957147 12.8657C-0.929411 12.826 -0.89015 12.7958 -0.844672 12.7791L1.45848 11.9499C2.72109 11.4948 3.86777 10.7669 4.81678 9.81803C5.7658 8.86912 6.49379 7.72257 6.94885 6.4601L7.77819 4.15721C7.79441 4.11127 7.82447 4.0715 7.86424 4.04336C7.90401 4.01523 7.95153 4.00012 8.00025 4.00012C8.04896 4.00012 8.09648 4.01523 8.13625 4.04336C8.17602 4.0715 8.20608 4.11127 8.2223 4.15721Z" fill="url(#paint1_linear_963_1901)"/>
<path d="M8.19526 4.16675L8.19532 4.16692L9.02466 6.46981L9.02467 6.46982C9.48116 7.73625 10.2114 8.88641 11.1634 9.8383C12.1154 10.7902 13.2657 11.5204 14.5323 11.9768L14.5323 11.9768L16.8353 12.806C16.8353 12.806 16.8354 12.8061 16.8354 12.8061C16.8753 12.8207 16.9098 12.8473 16.9341 12.8821C16.9585 12.917 16.9716 12.9586 16.9716 13.0011C16.9716 13.0437 16.9585 13.0852 16.9341 13.1201C16.9098 13.155 16.8753 13.1815 16.8354 13.1962C16.8354 13.1962 16.8353 13.1962 16.8353 13.1962L14.5323 14.0254L14.5323 14.0254C13.2657 14.4819 12.1154 15.2121 11.1634 16.164C10.2114 17.1159 9.48116 18.266 9.02467 19.5324L9.02466 19.5325L8.19538 21.8352C8.19537 21.8352 8.19535 21.8353 8.19533 21.8353C8.18067 21.8752 8.15412 21.9097 8.11926 21.934C8.08436 21.9584 8.04281 21.9715 8.00025 21.9715C7.95768 21.9715 7.91613 21.9584 7.88123 21.934C7.84637 21.9097 7.81982 21.8752 7.80515 21.8353C7.80514 21.8353 7.80512 21.8352 7.80511 21.8352L6.97582 19.5325L6.97582 19.5324C6.51933 18.266 5.78905 17.1159 4.83706 16.164C3.88506 15.2121 2.73477 14.4819 1.4682 14.0254L1.46819 14.0254L-0.834802 13.1962C-0.834821 13.1962 -0.83484 13.1962 -0.83486 13.1962C-0.874802 13.1816 -0.909282 13.155 -0.933644 13.1201C-0.958017 13.0852 -0.971087 13.0437 -0.971087 13.0011C-0.971087 12.9586 -0.958017 12.917 -0.933644 12.8821C-0.909287 12.8473 -0.874816 12.8207 -0.834885 12.8061C-0.834858 12.806 -0.83483 12.806 -0.834803 12.806L1.46819 11.9768L1.4682 11.9768C2.73477 11.5204 3.88506 10.7902 4.83706 9.8383C5.78905 8.88641 6.51933 7.73625 6.97582 6.46982L6.97582 6.46981L7.80517 4.16692L7.80523 4.16675C7.81947 4.12641 7.84587 4.09148 7.8808 4.06677C7.91572 4.04206 7.95746 4.02879 8.00025 4.02879C8.04303 4.02879 8.08476 4.04206 8.11969 4.06677C8.15462 4.09148 8.18102 4.12641 8.19526 4.16675ZM8.2223 4.15721L9.05164 6.4601C9.5067 7.72257 10.2347 8.86912 11.1837 9.81803C12.1327 10.7669 13.2794 11.4948 14.542 11.9499L8.2223 4.15721Z" stroke="url(#paint2_linear_963_1901)" stroke-width="0.057337"/>
</g>
<g filter="url(#filter1_f_963_1901)">
<path d="M11.0161 5.79488L11.737 7.79679C12.1325 8.89425 12.7653 9.89095 13.5902 10.7158C14.415 11.5407 15.4117 12.1735 16.5092 12.569L18.5111 13.2899C18.5507 13.3044 18.5848 13.3307 18.6089 13.3652C18.633 13.3997 18.6459 13.4408 18.6459 13.4829C18.6459 13.525 18.633 13.5661 18.6089 13.6006C18.5848 13.6351 18.5507 13.6614 18.5111 13.6759L16.5092 14.3968C15.4117 14.7923 14.415 15.4251 13.5902 16.25C12.7653 17.0749 12.1325 18.0716 11.737 19.1691L11.0161 21.171C11.0016 21.2105 10.9753 21.2446 10.9408 21.2687C10.9063 21.2928 10.8652 21.3058 10.8231 21.3058C10.781 21.3058 10.7399 21.2928 10.7054 21.2687C10.6709 21.2446 10.6446 21.2105 10.6301 21.171L9.90921 19.1691C9.51366 18.0716 8.8809 17.0749 8.05601 16.25C7.23112 15.4251 6.23442 14.7923 5.13695 14.3968L3.13504 13.6759C3.09551 13.6614 3.06139 13.6351 3.03728 13.6006C3.01317 13.5661 3.00024 13.525 3.00024 13.4829C3.00024 13.4408 3.01317 13.3997 3.03728 13.3652C3.06139 13.3307 3.09551 13.3044 3.13504 13.2899L5.13695 12.569C6.23442 12.1735 7.23112 11.5407 8.05601 10.7158C8.8809 9.89095 9.51366 8.89425 9.90921 7.79679L10.6301 5.79488C10.6442 5.75495 10.6703 5.72037 10.7049 5.69592C10.7394 5.67146 10.7807 5.65833 10.8231 5.65833C10.8654 5.65833 10.9067 5.67146 10.9413 5.69592C10.9759 5.72037 11.002 5.75495 11.0161 5.79488Z" fill="url(#paint3_linear_963_1901)" fill-opacity="0.85"/>
</g>
<path d="M19.9376 1.06284L20.2739 1.99655C20.4584 2.50843 20.7535 2.9733 21.1383 3.35804C21.5231 3.74278 21.988 4.03792 22.5 4.2224L23.4338 4.55863C23.4522 4.56539 23.4682 4.57765 23.4794 4.59375C23.4906 4.60985 23.4967 4.62901 23.4967 4.64865C23.4967 4.66829 23.4906 4.68745 23.4794 4.70355C23.4682 4.71965 23.4522 4.73191 23.4338 4.73867L22.5 5.07489C21.988 5.25938 21.5231 5.55451 21.1383 5.93925C20.7535 6.32399 20.4584 6.78887 20.2739 7.30074L19.9376 8.23446C19.9309 8.2529 19.9186 8.26882 19.9025 8.28006C19.8864 8.2913 19.8672 8.29733 19.8476 8.29733C19.8279 8.29733 19.8088 8.2913 19.7927 8.28006C19.7766 8.26882 19.7643 8.2529 19.7575 8.23446L19.4213 7.30074C19.2368 6.78887 18.9416 6.32399 18.5568 5.93925C18.172 5.55451 17.7071 5.25938 17.1952 5.07489L16.2614 4.73867C16.2429 4.73191 16.227 4.71965 16.2158 4.70355C16.2045 4.68745 16.1985 4.66829 16.1985 4.64865C16.1985 4.62901 16.2045 4.60985 16.2158 4.59375C16.227 4.57765 16.2429 4.56539 16.2614 4.55863L17.1952 4.2224C17.7071 4.03792 18.172 3.74278 18.5568 3.35804C18.9416 2.9733 19.2368 2.50843 19.4213 1.99655L19.7575 1.06284C19.7641 1.04421 19.7763 1.02809 19.7924 1.01668C19.8086 1.00527 19.8278 0.999146 19.8476 0.999146C19.8673 0.999146 19.8866 1.00527 19.9027 1.01668C19.9188 1.02809 19.931 1.04421 19.9376 1.06284Z" fill="url(#paint4_linear_963_1901)"/>
<path d="M19.9376 18.1436L20.2739 19.0774C20.4584 19.5892 20.7535 20.0541 21.1383 20.4389C21.5231 20.8236 21.988 21.1187 22.5 21.3032L23.4338 21.6394C23.4522 21.6462 23.4682 21.6585 23.4794 21.6746C23.4906 21.6907 23.4967 21.7098 23.4967 21.7295C23.4967 21.7491 23.4906 21.7683 23.4794 21.7844C23.4682 21.8005 23.4522 21.8127 23.4338 21.8195L22.5 22.1557C21.988 22.3402 21.5231 22.6353 21.1383 23.0201C20.7535 23.4048 20.4584 23.8697 20.2739 24.3816L19.9376 25.3153C19.9309 25.3337 19.9186 25.3496 19.9025 25.3609C19.8864 25.3721 19.8672 25.3781 19.8476 25.3781C19.8279 25.3781 19.8088 25.3721 19.7927 25.3609C19.7766 25.3496 19.7643 25.3337 19.7575 25.3153L19.4213 24.3816C19.2368 23.8697 18.9416 23.4048 18.5568 23.0201C18.172 22.6353 17.7071 22.3402 17.1952 22.1557L16.2614 21.8195C16.2429 21.8127 16.227 21.8005 16.2158 21.7844C16.2045 21.7683 16.1985 21.7491 16.1985 21.7295C16.1985 21.7098 16.2045 21.6907 16.2158 21.6746C16.227 21.6585 16.2429 21.6462 16.2614 21.6394L17.1952 21.3032C17.7071 21.1187 18.172 20.8236 18.5568 20.4389C18.9416 20.0541 19.2368 19.5892 19.4213 19.0774L19.7575 18.1436C19.7641 18.125 19.7763 18.1089 19.7924 18.0975C19.8086 18.0861 19.8278 18.08 19.8476 18.08C19.8673 18.08 19.8866 18.0861 19.9027 18.0975C19.9188 18.1089 19.931 18.125 19.9376 18.1436Z" fill="url(#paint5_linear_963_1901)"/>
</g>
<defs>
<filter id="filter0_b_963_1901" x="-1.99773" y="3.00215" width="19.9959" height="19.9959" filterUnits="userSpaceOnUse" color-interpolation-filters="sRGB">
<feFlood flood-opacity="0" result="BackgroundImageFix"/>
<feGaussianBlur in="BackgroundImageFix" stdDeviation="0.498986"/>
<feComposite in2="SourceAlpha" operator="in" result="effect1_backgroundBlur_963_1901"/>
<feBlend mode="normal" in="SourceGraphic" in2="effect1_backgroundBlur_963_1901" result="shape"/>
</filter>
<filter id="filter1_f_963_1901" x="-2.89976" y="-0.241675" width="27.4458" height="27.4475" filterUnits="userSpaceOnUse" color-interpolation-filters="sRGB">
<feFlood flood-opacity="0" result="BackgroundImageFix"/>
<feBlend mode="normal" in="SourceGraphic" in2="BackgroundImageFix" result="shape"/>
<feGaussianBlur stdDeviation="2.95" result="effect1_foregroundBlur_963_1901"/>
</filter>
<linearGradient id="paint0_linear_963_1901" x1="10.8231" y1="5.65845" x2="10.8231" y2="21.3059" gradientUnits="userSpaceOnUse">
<stop stop-color="#0EA9F7"/>
<stop offset="0.53" stop-color="#41B1E9"/>
<stop offset="1" stop-color="#CEF6FF"/>
</linearGradient>
<linearGradient id="paint1_linear_963_1901" x1="8.00024" y1="4.00012" x2="8.00024" y2="22.0001" gradientUnits="userSpaceOnUse">
<stop stop-color="#1BABF3"/>
<stop offset="1" stop-color="#6FCBF8"/>
</linearGradient>
<linearGradient id="paint2_linear_963_1901" x1="1.13251" y1="11.7902" x2="15.0743" y2="13.0205" gradientUnits="userSpaceOnUse">
<stop offset="1" stop-color="#18ABF4"/>
<stop offset="1"/>
</linearGradient>
<linearGradient id="paint3_linear_963_1901" x1="10.8231" y1="5.65833" x2="10.8231" y2="21.3058" gradientUnits="userSpaceOnUse">
<stop stop-color="#0EA9F7"/>
<stop offset="0.53" stop-color="#41B1E9"/>
<stop offset="1" stop-color="#CEF6FF"/>
</linearGradient>
<linearGradient id="paint4_linear_963_1901" x1="19.8476" y1="0.999146" x2="19.8476" y2="8.29733" gradientUnits="userSpaceOnUse">
<stop stop-color="#0EA9F7"/>
<stop offset="0.53" stop-color="#41B1E9"/>
<stop offset="1" stop-color="#CEF6FF"/>
</linearGradient>
<linearGradient id="paint5_linear_963_1901" x1="19.8476" y1="18.08" x2="19.8476" y2="25.3781" gradientUnits="userSpaceOnUse">
<stop stop-color="#0EA9F7"/>
<stop offset="0.53" stop-color="#41B1E9"/>
<stop offset="1" stop-color="#CEF6FF"/>
</linearGradient>
<clipPath id="clip0_963_1901">
<rect width="26.375" height="26.375" fill="white"/>
</clipPath>
</defs>
</svg>
