<svg width="29" height="29" viewBox="0 0 29 29" fill="none" xmlns="http://www.w3.org/2000/svg">
<path d="M25.9572 8.6073L15.0556 2.56563C14.8766 2.46662 14.6754 2.41467 14.4708 2.41467C14.2662 2.41467 14.065 2.46662 13.886 2.56563L3.03754 8.55897C2.84908 8.66332 2.69195 8.81616 2.58241 9.00166C2.47288 9.18715 2.41492 9.39856 2.41455 9.61398C2.41418 9.82941 2.47141 10.041 2.58031 10.2269C2.68921 10.4128 2.84582 10.5661 3.03391 10.6711L13.9355 16.7611C14.1152 16.8614 14.3174 16.9142 14.5232 16.9144C14.7289 16.9146 14.9313 16.8623 15.1112 16.7623L25.9596 10.7207C26.1481 10.6159 26.305 10.4625 26.4143 10.2766C26.5235 10.0907 26.5809 9.87891 26.5807 9.66328C26.5804 9.44764 26.5225 9.236 26.4129 9.05032C26.3032 8.86464 26.1459 8.71167 25.9572 8.6073Z" fill="#1C0D0D"/>
<path d="M14.4989 19.159L4.20991 13.4436L3.03662 15.5558L13.9116 21.5974C14.0911 21.6971 14.293 21.7494 14.4983 21.7494C14.7035 21.7494 14.9054 21.6971 15.0849 21.5974L25.9599 15.5558L24.7866 13.4436L14.4989 19.159Z" fill="#1C0D0D"/>
<path d="M14.4989 23.99L4.20991 18.2745L3.03662 20.3867L13.9116 26.4284C14.0911 26.528 14.293 26.5803 14.4983 26.5803C14.7035 26.5803 14.9054 26.528 15.0849 26.4284L25.9599 20.3867L24.7866 18.2745L14.4989 23.99Z" fill="#1C0D0D"/>
</svg>
