<svg width="24" height="24" viewBox="0 0 24 24" fill="none" xmlns="http://www.w3.org/2000/svg">
<path d="M3.28196 21.782L7.55996 17.504M7.55996 17.504L10.753 14.31M7.55996 17.504C7.11896 17.23 6.70796 16.928 6.32796 16.609C4.68396 15.231 3.60096 13.552 3.09096 12.649C2.98096 12.454 2.92496 12.356 2.89296 12.204C2.86967 12.069 2.86967 11.931 2.89296 11.796C2.92496 11.643 2.97996 11.546 3.08996 11.35C4.05196 9.64898 7.04396 5.18998 12 5.18998C13.717 5.18998 15.2 5.72598 16.441 6.49598C16.882 6.76898 17.293 7.07098 17.673 7.38998M21.782 3.28198L17.673 7.38998M17.673 7.38998L14.31 10.753M14.31 10.753C14.0661 10.3031 13.6968 9.93381 13.247 9.68998C12.9436 9.52622 12.611 9.42382 12.268 9.38861C11.9251 9.35341 11.5786 9.3861 11.2483 9.4848C10.918 9.58351 10.6104 9.74631 10.343 9.96391C10.0756 10.1815 9.85371 10.4496 9.68996 10.753C9.5262 11.0563 9.42379 11.389 9.38859 11.7319C9.35338 12.0748 9.38607 12.4213 9.48478 12.7516C9.58349 13.0819 9.74628 13.3896 9.96388 13.6569C10.1815 13.9243 10.4496 14.1462 10.753 14.31M14.31 10.753L10.753 14.31M19.74 9.57898C20.268 10.273 20.659 10.907 20.91 11.352C21.02 11.546 21.075 11.644 21.107 11.796C21.13 11.908 21.13 12.092 21.107 12.204C21.075 12.356 21.02 12.454 20.91 12.648C19.95 14.35 16.96 18.81 12 18.81C11.524 18.8086 11.066 18.7697 10.626 18.693" stroke="#D5D5D5" stroke-width="1.5" stroke-linecap="round" stroke-linejoin="round"/>
</svg>
