<svg width="34" height="34" viewBox="0 0 34 34" fill="none" xmlns="http://www.w3.org/2000/svg">
<rect x="0.320312" y="0.0722656" width="33" height="33" rx="6" fill="#F3627C"/>
<g clip-path="url(#clip0_963_1956)">
<path d="M11.5703 6.07031C11.1561 6.07031 10.8203 6.4061 10.8203 6.82033V8.32031H12.3203V6.82033C12.3203 6.4061 11.9845 6.07031 11.5703 6.07031Z" fill="white"/>
<path d="M22.0781 6.07031C21.6639 6.07031 21.3281 6.4061 21.3281 6.82033V8.32031H22.8281V6.82033C22.8282 6.4061 22.4924 6.07031 22.0781 6.07031Z" fill="white"/>
<path d="M25.0781 8.32422H22.8281V11.3242C22.8281 11.7385 22.4923 12.0742 22.0781 12.0742C21.6639 12.0742 21.3281 11.7385 21.3281 11.3242V8.32422H12.3281V11.3242C12.3281 11.7385 11.9923 12.0742 11.5781 12.0742C11.1639 12.0742 10.8281 11.7385 10.8281 11.3242V8.32422H8.57812C7.33548 8.32422 6.32812 9.33158 6.32812 10.5742V24.8242C6.32812 26.0669 7.33548 27.0742 8.57812 27.0742H25.0781C26.3208 27.0742 27.3281 26.0669 27.3281 24.8242V10.5742C27.3281 9.33158 26.3208 8.32422 25.0781 8.32422ZM25.8281 24.8242C25.8281 25.2385 25.4923 25.5742 25.0781 25.5742H8.57812C8.1639 25.5742 7.82811 25.2385 7.82811 24.8242V15.0742H25.8281V24.8242Z" fill="white"/>
<path d="M12.3203 16.5742H10.8203C10.4061 16.5742 10.0703 16.91 10.0703 17.3242C10.0703 17.7385 10.4061 18.0743 10.8203 18.0743H12.3203C12.7345 18.0743 13.0703 17.7385 13.0703 17.3242C13.0703 16.91 12.7345 16.5742 12.3203 16.5742Z" fill="white"/>
<path d="M17.5703 16.5742H16.0703C15.6561 16.5742 15.3203 16.91 15.3203 17.3242C15.3203 17.7385 15.6561 18.0743 16.0703 18.0743H17.5703C17.9845 18.0743 18.3203 17.7385 18.3203 17.3242C18.3203 16.91 17.9845 16.5742 17.5703 16.5742Z" fill="white"/>
<path d="M22.8125 16.5742H21.3125C20.8983 16.5742 20.5625 16.91 20.5625 17.3242C20.5625 17.7385 20.8983 18.0743 21.3125 18.0743H22.8125C23.2267 18.0743 23.5625 17.7385 23.5625 17.3242C23.5625 16.91 23.2267 16.5742 22.8125 16.5742Z" fill="white"/>
<path d="M12.3203 19.5723H10.8203C10.4061 19.5723 10.0703 19.9081 10.0703 20.3223C10.0703 20.7365 10.4061 21.0723 10.8203 21.0723H12.3203C12.7345 21.0723 13.0703 20.7365 13.0703 20.3223C13.0703 19.9081 12.7345 19.5723 12.3203 19.5723Z" fill="white"/>
<path d="M17.5703 19.5723H16.0703C15.6561 19.5723 15.3203 19.9081 15.3203 20.3223C15.3203 20.7365 15.6561 21.0723 16.0703 21.0723H17.5703C17.9845 21.0723 18.3203 20.7365 18.3203 20.3223C18.3203 19.9081 17.9845 19.5723 17.5703 19.5723Z" fill="white"/>
<path d="M22.8125 19.5723H21.3125C20.8983 19.5723 20.5625 19.9081 20.5625 20.3223C20.5625 20.7365 20.8983 21.0723 21.3125 21.0723H22.8125C23.2267 21.0723 23.5625 20.7365 23.5625 20.3223C23.5625 19.9081 23.2267 19.5723 22.8125 19.5723Z" fill="white"/>
<path d="M12.3203 22.5703H10.8203C10.4061 22.5703 10.0703 22.9061 10.0703 23.3203C10.0703 23.7346 10.4061 24.0703 10.8203 24.0703H12.3203C12.7345 24.0703 13.0703 23.7345 13.0703 23.3203C13.0703 22.9061 12.7345 22.5703 12.3203 22.5703Z" fill="white"/>
<path d="M17.5703 22.5703H16.0703C15.6561 22.5703 15.3203 22.9061 15.3203 23.3203C15.3203 23.7346 15.6561 24.0703 16.0703 24.0703H17.5703C17.9845 24.0703 18.3203 23.7346 18.3203 23.3203C18.3203 22.9061 17.9845 22.5703 17.5703 22.5703Z" fill="white"/>
<path d="M22.8125 22.5703H21.3125C20.8983 22.5703 20.5625 22.9061 20.5625 23.3203C20.5625 23.7346 20.8983 24.0703 21.3125 24.0703H22.8125C23.2267 24.0703 23.5625 23.7346 23.5625 23.3203C23.5625 22.9061 23.2267 22.5703 22.8125 22.5703Z" fill="white"/>
</g>
<defs>
<clipPath id="clip0_963_1956">
<rect width="21" height="21" fill="white" transform="translate(6.32031 6.07227)"/>
</clipPath>
</defs>
</svg>
