<svg width="175" height="39" viewBox="0 0 175 39" fill="none" xmlns="http://www.w3.org/2000/svg">
<path d="M30.4338 11.0943L17.6526 4.01097C17.4427 3.89488 17.2068 3.83398 16.9669 3.83398C16.7271 3.83398 16.4912 3.89488 16.2813 4.01097L3.56243 11.0376C3.34148 11.16 3.15725 11.3392 3.02883 11.5567C2.90041 11.7741 2.83247 12.022 2.83203 12.2746C2.8316 12.5271 2.89869 12.7752 3.02637 12.9931C3.15404 13.211 3.33765 13.3909 3.55818 13.514L16.3393 20.654C16.55 20.7715 16.7871 20.8334 17.0284 20.8336C17.2696 20.8339 17.5069 20.7725 17.7178 20.6554L30.4366 13.5721C30.6575 13.4492 30.8416 13.2694 30.9696 13.0514C31.0977 12.8334 31.165 12.5852 31.1647 12.3323C31.1644 12.0795 31.0965 11.8314 30.968 11.6137C30.8394 11.396 30.655 11.2167 30.4338 11.0943Z" fill="black"/>
<path d="M17.001 23.4626L4.93808 16.7617L3.5625 19.2381L16.3125 26.3214C16.5229 26.4382 16.7596 26.4995 17.0003 26.4995C17.241 26.4995 17.4777 26.4382 17.6881 26.3214L30.4381 19.2381L29.0625 16.7617L17.001 23.4626Z" fill="black"/>
<path d="M17.001 29.1286L4.93808 22.4277L3.5625 24.9041L16.3125 31.9874C16.5229 32.1042 16.7596 32.1656 17.0003 32.1656C17.241 32.1656 17.4777 32.1042 17.6881 31.9874L30.4381 24.9041L29.0625 22.4277L17.001 29.1286Z" fill="black"/>
<path d="M48.627 29.3418C47.1686 29.3418 45.7331 29.0684 44.3203 28.5215C42.9076 27.9655 41.7272 27.2272 40.7793 26.3066L42.5156 23.7637C43.2904 24.5384 44.2201 25.1628 45.3047 25.6367C46.3984 26.1016 47.5059 26.334 48.627 26.334C49.748 26.334 50.6914 26.0924 51.457 25.6094C52.2227 25.1263 52.6055 24.502 52.6055 23.7363C52.6055 23.4355 52.5417 23.1576 52.4141 22.9023C52.2865 22.638 52.0951 22.4102 51.8398 22.2188C51.5846 22.0273 51.3294 21.8633 51.0742 21.7266C50.819 21.5807 50.4863 21.4486 50.0762 21.3301C49.6751 21.2025 49.3424 21.1068 49.0781 21.043C48.8229 20.9701 48.4857 20.888 48.0664 20.7969C47.1367 20.5781 46.2936 20.3138 45.5371 20.0039C44.7806 19.6849 44.0833 19.293 43.4453 18.8281C42.8073 18.3633 42.3105 17.7982 41.9551 17.1328C41.5996 16.4583 41.4219 15.7109 41.4219 14.8906C41.4219 13.2318 42.0872 11.8919 43.418 10.8711C44.7487 9.85026 46.4759 9.33984 48.5996 9.33984C49.9577 9.33984 51.2064 9.55859 52.3457 9.99609C53.485 10.4336 54.4193 11.0169 55.1484 11.7461L53.5762 14.2754C53.0293 13.7103 52.2956 13.2454 51.375 12.8809C50.4635 12.5163 49.5202 12.334 48.5449 12.334C47.4694 12.334 46.5853 12.5618 45.8926 13.0176C45.209 13.4733 44.8672 14.0612 44.8672 14.7812C44.8672 16.1029 46.248 17.0417 49.0098 17.5977C49.3561 17.6706 49.6797 17.748 49.9805 17.8301C50.2812 17.9121 50.6823 18.0397 51.1836 18.2129C51.6849 18.3861 52.1361 18.5729 52.5371 18.7734C52.9382 18.974 53.362 19.2383 53.8086 19.5664C54.2643 19.8854 54.6426 20.2318 54.9434 20.6055C55.2533 20.9701 55.5085 21.4121 55.709 21.9316C55.9095 22.4512 56.0098 23.0072 56.0098 23.5996C56.0098 25.2858 55.3079 26.6667 53.9043 27.7422C52.5007 28.8086 50.7415 29.3418 48.627 29.3418ZM66.4824 14.3848C68.1777 14.3848 69.5404 14.8997 70.5703 15.9297C71.6094 16.9596 72.1289 18.3223 72.1289 20.0176V29H68.998V21.043C68.998 19.9492 68.6745 19.0697 68.0273 18.4043C67.3802 17.7389 66.5189 17.4062 65.4434 17.4062C64.3132 17.4062 63.4017 17.7435 62.709 18.418C62.0163 19.0924 61.6699 19.9857 61.6699 21.0977V29H58.5254V8.83398H61.6699V16.6543C62.8366 15.1413 64.4408 14.3848 66.4824 14.3848ZM89.7793 21.8906C89.7793 22.3099 89.752 22.7201 89.6973 23.1211H78.1309C78.3861 24.151 78.9238 24.9759 79.7441 25.5957C80.5736 26.2064 81.5671 26.5117 82.7246 26.5117C83.6178 26.5117 84.4473 26.3249 85.2129 25.9512C85.9876 25.5775 86.5892 25.1081 87.0176 24.543L89.1367 26.3613C88.3984 27.291 87.4596 28.0202 86.3203 28.5488C85.1901 29.0775 83.9642 29.3418 82.6426 29.3418C80.3822 29.3418 78.5 28.6217 76.9961 27.1816C75.5013 25.7415 74.7539 23.9505 74.7539 21.8086C74.7539 20.4232 75.082 19.1654 75.7383 18.0352C76.3945 16.8958 77.2969 16.0026 78.4453 15.3555C79.6029 14.7083 80.8835 14.3848 82.2871 14.3848C84.429 14.3848 86.2109 15.1003 87.6328 16.5312C89.0638 17.9531 89.7793 19.7396 89.7793 21.8906ZM82.2598 17.2148C81.248 17.2148 80.3639 17.5202 79.6074 18.1309C78.86 18.7415 78.3587 19.5482 78.1035 20.5508H86.4297C86.1927 19.5482 85.6914 18.7415 84.9258 18.1309C84.1693 17.5202 83.2806 17.2148 82.2598 17.2148ZM100.471 14.3848C102.166 14.3848 103.529 14.8997 104.559 15.9297C105.598 16.9596 106.117 18.3223 106.117 20.0176V29H102.986V21.043C102.986 19.9492 102.663 19.0697 102.016 18.4043C101.368 17.7389 100.507 17.4062 99.4316 17.4062C98.3014 17.4062 97.39 17.7435 96.6973 18.418C96.0046 19.0924 95.6582 19.9857 95.6582 21.0977V29H92.5137V14.7266H95.6582V16.5723C96.834 15.1139 98.4382 14.3848 100.471 14.3848ZM109.604 29V8.83398H112.748V29H109.604ZM116.467 29V8.83398H119.611V29H116.467Z" fill="black"/>
<path d="M129.846 27.3418C127.695 27.3418 125.895 26.6263 124.445 25.1953C123.005 23.7643 122.285 21.987 122.285 19.8633C122.285 17.7396 123.005 15.9622 124.445 14.5312C125.895 13.1003 127.695 12.3848 129.846 12.3848C131.24 12.3848 132.507 12.7038 133.646 13.3418C134.795 13.9798 135.693 14.8548 136.34 15.9668L134.918 16.8418C134.417 15.9577 133.719 15.2559 132.826 14.7363C131.933 14.2168 130.939 13.957 129.846 13.957C128.169 13.957 126.77 14.5221 125.648 15.6523C124.527 16.7734 123.967 18.1771 123.967 19.8633C123.967 21.5495 124.527 22.9577 125.648 24.0879C126.77 25.209 128.169 25.7695 129.846 25.7695C130.939 25.7695 131.933 25.5098 132.826 24.9902C133.719 24.4707 134.417 23.7689 134.918 22.8848L136.34 23.7461C135.684 24.8581 134.786 25.7376 133.646 26.3848C132.507 27.0228 131.24 27.3418 129.846 27.3418ZM146.676 12.4941H147.1V14.1758H146.676C145.035 14.1758 143.727 14.668 142.752 15.6523C141.786 16.6367 141.303 17.9629 141.303 19.6309V27H139.676V12.7266H141.303V15.7207C141.831 14.6999 142.556 13.9069 143.477 13.3418C144.406 12.7767 145.473 12.4941 146.676 12.4941ZM166.896 12.3848C168.546 12.3848 169.868 12.8815 170.861 13.875C171.855 14.8594 172.352 16.1719 172.352 17.8125V27H170.725V18.2637C170.725 16.9603 170.333 15.9167 169.549 15.1328C168.774 14.349 167.74 13.957 166.445 13.957C165.096 13.957 164.012 14.3581 163.191 15.1602C162.371 15.9531 161.961 17.0059 161.961 18.3184V27H160.348V18.2637C160.348 16.9694 159.951 15.9303 159.158 15.1465C158.374 14.3535 157.34 13.957 156.055 13.957C154.706 13.957 153.617 14.3581 152.787 15.1602C151.967 15.9531 151.557 17.0059 151.557 18.3184V27H149.93V12.7266H151.557V15.0781C152.067 14.2122 152.746 13.5469 153.594 13.082C154.441 12.6172 155.421 12.3848 156.533 12.3848C157.727 12.3848 158.762 12.6628 159.637 13.2188C160.521 13.7656 161.159 14.5312 161.551 15.5156C162.034 14.5221 162.736 13.752 163.656 13.2051C164.577 12.6582 165.657 12.3848 166.896 12.3848Z" fill="black"/>
</svg>
