<svg width="16" height="16" viewBox="0 0 16 16" fill="none" xmlns="http://www.w3.org/2000/svg">
<path d="M14.5759 4.83118L8.32026 1.58097C8.21753 1.5277 8.10206 1.49976 7.98467 1.49976C7.86727 1.49976 7.7518 1.5277 7.64907 1.58097L1.4239 4.80518C1.31575 4.86132 1.22559 4.94355 1.16273 5.04334C1.09988 5.14313 1.06662 5.25686 1.06641 5.37275C1.0662 5.48864 1.09903 5.60247 1.16152 5.70247C1.22401 5.80246 1.31388 5.88497 1.42182 5.94146L7.6775 9.21768C7.78059 9.27163 7.89667 9.3 8.01474 9.30012C8.1328 9.30023 8.24895 9.27208 8.35216 9.21833L14.5773 5.96811C14.6855 5.91173 14.7755 5.82925 14.8382 5.72922C14.9009 5.62919 14.9339 5.51527 14.9337 5.39926C14.9336 5.28326 14.9003 5.16941 14.8374 5.06951C14.7745 4.96962 14.6842 4.88733 14.5759 4.83118Z" fill="#1C0D0D"/>
<path d="M8.00028 10.5488L2.16505 7.56677L1.49963 8.66879L7.66723 11.821C7.76901 11.873 7.88351 11.9003 7.99993 11.9003C8.11636 11.9003 8.23086 11.873 8.33264 11.821L14.5002 8.66879L13.8348 7.56677L8.00028 10.5488Z" fill="#1C0D0D"/>
<path d="M8.00028 13.1488L2.16505 10.1667L1.49963 11.2688L7.66723 14.421C7.76901 14.473 7.88351 14.5003 7.99993 14.5003C8.11636 14.5003 8.23086 14.473 8.33264 14.421L14.5002 11.2688L13.8348 10.1667L8.00028 13.1488Z" fill="#1C0D0D"/>
</svg>
