<svg width="16" height="14" viewBox="0 0 16 14" fill="none" xmlns="http://www.w3.org/2000/svg">
<path d="M13.2578 0.572388H3.3411C2.33951 0.572388 1.83872 0.572388 1.52776 0.864221C1.2168 1.15605 1.21609 1.62639 1.21609 2.56635V3.0551C1.21609 3.78964 1.21609 4.15726 1.40026 4.46185C1.58443 4.76643 1.91947 4.95626 2.59168 5.33451L4.65505 6.49618C5.10555 6.74976 5.33151 6.87655 5.49301 7.0168C5.82876 7.30793 6.0356 7.65076 6.1291 8.07222C6.17443 8.27339 6.17443 8.50997 6.17443 8.98243V10.8737C6.17443 11.5176 6.17443 11.8398 6.35293 12.0906C6.53143 12.3421 6.84876 12.466 7.48201 12.7139C8.81297 13.2338 9.4781 13.4938 9.95126 13.1977C10.4244 12.9016 10.4244 12.2259 10.4244 10.873V8.98172C10.4244 8.50997 10.4244 8.27339 10.4698 8.07151C10.5587 7.65867 10.7828 7.28728 11.1066 7.0161C11.2673 6.87656 11.4933 6.74976 11.9438 6.49547L14.0072 5.33381C14.6787 4.95626 15.0151 4.76714 15.1986 4.46255C15.3828 4.15797 15.3828 3.78964 15.3828 3.05439V2.56564C15.3828 1.62639 15.3828 1.15605 15.0711 0.864221C14.7608 0.572388 14.2601 0.572388 13.2578 0.572388Z" stroke="#1C0D0D"/>
</svg>
